<?xml version="1.0" encoding="UTF-8"?> <svg xmlns="http://www.w3.org/2000/svg" xmlns:xlink="http://www.w3.org/1999/xlink" viewBox="0 0 141.73 225.2"> <defs> <style> .cls-1 { fill: url(#Безымянный_градиент_9); } .cls-2 { fill: url(#Безымянный_градиент_9-2); } .cls-3 { fill: url(#Безымянный_градиент_9-3); } .cls-4 { fill: url(#Безымянный_градиент_9-4); } .cls-5 { fill: url(#Безымянный_градиент_9-5); } .cls-6 { fill: url(#Безымянный_градиент_9-6); } .cls-7 { fill: url(#Безымянный_градиент_9-7); } .cls-8 { fill: url(#Безымянный_градиент_9-8); } .cls-9 { fill: url(#Безымянный_градиент_9-9); } .cls-10 { fill: url(#Безымянный_градиент_9-10); } .cls-11 { fill: url(#Безымянный_градиент_9-11); } .cls-12 { fill: url(#Безымянный_градиент_9-12); } .cls-13 { fill: url(#Безымянный_градиент_9-13); } .cls-14 { fill: url(#Безымянный_градиент_9-14); } .cls-15 { fill: #fff; } </style> <linearGradient id="Безымянный_градиент_9" data-name="Безымянный градиент 9" x1="70.87" y1="1.3" x2="70.87" y2="6.82" gradientUnits="userSpaceOnUse"> <stop offset="0.15" stop-color="#2a3c90"></stop> <stop offset="0.62" stop-color="#252351"></stop> <stop offset="1" stop-color="#110e23"></stop> </linearGradient> <linearGradient id="Безымянный_градиент_9-2" x1="70.87" y1="24.73" x2="70.87" y2="43.66" xlink:href="#Безымянный_градиент_9"></linearGradient> <linearGradient id="Безымянный_градиент_9-3" x1="69.13" y1="55.94" x2="69.13" y2="107.64" xlink:href="#Безымянный_градиент_9"></linearGradient> <linearGradient id="Безымянный_градиент_9-4" x1="2.36" y1="112.26" x2="2.36" y2="113.06" xlink:href="#Безымянный_градиент_9"></linearGradient> <linearGradient id="Безымянный_градиент_9-5" x1="14.28" y1="106.24" x2="14.28" y2="111.92" xlink:href="#Безымянный_градиент_9"></linearGradient> <linearGradient id="Безымянный_градиент_9-6" x1="33.68" y1="135.77" x2="33.68" y2="177.78" xlink:href="#Безымянный_градиент_9"></linearGradient> <linearGradient id="Безымянный_градиент_9-7" x1="116.19" y1="111.26" x2="116.19" y2="113.74" xlink:href="#Безымянный_градиент_9"></linearGradient> <linearGradient id="Безымянный_градиент_9-8" x1="70.87" y1="7.16" x2="70.87" y2="21.36" xlink:href="#Безымянный_градиент_9"></linearGradient> <linearGradient id="Безымянный_градиент_9-9" x1="49.63" y1="96.95" x2="49.63" y2="151.67" xlink:href="#Безымянный_градиент_9"></linearGradient> <linearGradient id="Безымянный_градиент_9-10" x1="86.33" y1="142.52" x2="86.33" y2="181.22" xlink:href="#Безымянный_градиент_9"></linearGradient> <linearGradient id="Безымянный_градиент_9-11" x1="70.87" y1="120.13" x2="70.87" y2="184.74" xlink:href="#Безымянный_градиент_9"></linearGradient> <linearGradient id="Безымянный_градиент_9-12" x1="63.96" y1="173.25" x2="63.96" y2="176.4" xlink:href="#Безымянный_градиент_9"></linearGradient> <linearGradient id="Безымянный_градиент_9-13" x1="131.32" y1="159.4" x2="131.32" y2="178.58" xlink:href="#Безымянный_градиент_9"></linearGradient> <linearGradient id="Безымянный_градиент_9-14" x1="125.81" y1="147.44" x2="125.81" y2="179.05" xlink:href="#Безымянный_градиент_9"></linearGradient> </defs> <title>Белый лого вертикаль</title> <g id="Слой_2" data-name="Слой 2"> <g id="Слой_1-2" data-name="Слой 1"> <g> <g> <g> <polygon class="cls-1" points="68.89 6.07 70.87 5.04 72.84 6.07 72.46 3.88 74.06 2.32 71.85 2 70.87 0 69.88 2 67.67 2.32 69.27 3.88 68.89 6.07"></polygon> <path class="cls-2" d="M68,41h4.69c.09,0,.51,0,1.14.07L72.31,20.27l-3.16,3.92Z"></path> <path class="cls-3" d="M81.36,73.49V66.33H78.17v-10l-6-5.45,1.53-4.43h1.55V44a24.53,24.53,0,0,0-2.64-.26H66.47v2.67H68l1.53,4.43-6,5.45v10H60.37v7.16l-10,13v14.18C65.5,95.71,79.85,89.47,87.89,82Z"></path> <path class="cls-4" d="M0,112.07V113c1.39-.25,3-.54,4.72-.88Z"></path> <path class="cls-5" d="M19.17,104.9H9.39v6.25c3-.61,6.27-1.3,9.78-2.09Z"></path> <path class="cls-6" d="M67.36,126.11q-3.54-.24-7-.24c-26.23,0-46.28,10.42-60.41,21.86v24.35C20.44,167.4,48.26,155.62,67.36,126.11Z"></path> <path class="cls-7" d="M117.54,110.67h-2.71v2.74A31.84,31.84,0,0,0,117.54,110.67Z"></path> <polygon class="cls-8" points="70.07 11.14 69.48 19.44 72.03 16.29 71.66 11.14 75.69 6.46 75.88 3.81 70.94 8.96 70.8 8.96 65.85 3.81 66.04 6.46 70.07 11.14"></polygon> <path class="cls-9" d="M69.85,123.57c11.5,1,21.32.38,29.41-1.92H91.35V86.45l-1.84-2.4c-8.7,8-23.62,14.45-39.13,19.48v18.12H26.9v-11H24.59c-10.19,2.41-19,4.1-24.59,5.08v28.5C16.12,131.71,39.3,120.81,69.85,123.57Z"></path> <path class="cls-10" d="M109.7,151.69c1.34-5.56,5.12-10,11.24-13.3a43.37,43.37,0,0,0-18.57-5C85,132.87,72.72,144,71.8,144.86L51.71,169.77H68.78c.48,0,10.07.25,17.28,6.21h30C112.87,171.19,107.42,161.17,109.7,151.69Z"></path> <path class="cls-11" d="M132.34,112.07V104.9h-7.62a38.77,38.77,0,0,1-2.16,3.73v2H121.1a35.38,35.38,0,0,1-6.27,6.32v4.66h-7.65c-9.44,4.39-21.72,6-36.74,4.71C50.65,157.83,21.3,170.1,0,174.87V176H43.21l26.63-33c.54-.52,13.41-12.84,32.57-12.26,13.68.4,26.9,7.3,39.32,20.48v-39.1Z"></path> <path class="cls-12" d="M49.51,172.51,46.71,176h34.5a29.89,29.89,0,0,0-12.45-3.47Z"></path> <path class="cls-13" d="M120.91,176h20.82v-21.1C134,160.9,123.12,170.71,120.91,176Z"></path> <path class="cls-14" d="M139.72,153a73.83,73.83,0,0,0-15.85-13c-6.37,3-10.25,7.12-11.51,12.33-2.07,8.58,3.29,18.12,6.17,22.44C121.79,167.5,134.81,156.83,139.72,153Z"></path> </g> <g> <g> <polygon class="cls-15" points="68.89 6.07 70.87 5.04 72.84 6.07 72.46 3.88 74.06 2.32 71.85 2 70.87 0 69.88 2 67.67 2.32 69.27 3.88 68.89 6.07"></polygon> <path class="cls-15" d="M70.87,2.26l.09.18.23.47.52.08.2,0-.15.14-.37.37.09.52,0,.2-.18-.1-.46-.24-.47.24-.18.1,0-.2.08-.52L70,3.16,69.82,3,70,3l.52-.08.24-.47.09-.18m0-2.26-1,2-2.21.32,1.6,1.56-.38,2.19,2-1,2,1-.38-2.19,1.6-1.56L71.85,2l-1-2Z"></path> </g> <g> <path class="cls-15" d="M68,41h4.69c.09,0,.51,0,1.14.07L72.31,20.27l-3.16,3.92Z"></path> <path class="cls-15" d="M71.49,22.88,72.7,40H69l1.09-15.44,1.37-1.7m.82-2.61-3.16,3.92L68,41h4.69c.09,0,.51,0,1.14.07L72.31,20.27Z"></path> </g> <g> <path class="cls-15" d="M81.36,73.49V66.33H78.17v-10l-6-5.45,1.53-4.43h1.55V44a24.53,24.53,0,0,0-2.64-.26H66.47v2.67H68l1.53,4.43-6,5.45v10H60.37v7.16l-10,13v14.18C65.5,95.71,79.85,89.47,87.89,82Z"></path> <path class="cls-15" d="M72.61,44.76c.07,0,.68,0,1.65.14v.53H73l-.23.67-1.54,4.44-.21.62.49.44,5.66,5.16V67.33h3.19v6.5l.21.27,6,7.74c-6.89,6.1-18.7,12-35.16,17.41V86.79L61.16,74.1l.21-.27v-6.5h3.19V56.76l5.67-5.16.48-.44-.21-.62L69,46.1l-.23-.67H67.47v-.67h5.14m0-1H66.47v2.67H68l1.53,4.43-6,5.45v10H60.37v7.16l-10,13v14.18C65.5,95.71,79.85,89.47,87.89,82l-6.53-8.47V66.33H78.17v-10l-6-5.45,1.53-4.43h1.55V44a24.53,24.53,0,0,0-2.64-.26Z"></path> </g> <g> <path class="cls-15" d="M0,112.07V113c1.39-.25,3-.54,4.72-.88Z"></path> <path class="cls-15" d="M4.72,112.07H0V113c1.39-.25,3-.54,4.72-.88Z"></path> </g> <g> <path class="cls-15" d="M19.17,104.9H9.39v6.25c3-.61,6.27-1.3,9.78-2.09Z"></path> <path class="cls-15" d="M18.17,105.9v2.36c-2.56.57-5.17,1.13-7.78,1.66v-4h7.78m1-1H9.39v6.25c3-.61,6.27-1.3,9.78-2.09V104.9Z"></path> </g> <g> <path class="cls-15" d="M67.36,126.11q-3.54-.24-7-.24c-26.23,0-46.28,10.42-60.41,21.86v24.35C20.44,167.4,48.26,155.62,67.36,126.11Z"></path> <path class="cls-15" d="M60.41,126.87c1.71,0,3.44,0,5.16.14C47,154.73,20.52,166.14,1,170.82V148.21c17.64-14.16,37.63-21.34,59.41-21.34m0-1c-26.23,0-46.28,10.42-60.41,21.86v24.35c20.44-4.68,48.26-16.46,67.36-46q-3.54-.24-7-.24Z"></path> </g> <g> <path class="cls-15" d="M117.54,110.67h-2.71v2.74A31.84,31.84,0,0,0,117.54,110.67Z"></path> <path class="cls-15" d="M117.54,110.67h-2.71v2.74a31.84,31.84,0,0,0,2.71-2.74Z"></path> </g> <g> <polygon class="cls-15" points="70.07 11.14 69.48 19.44 72.03 16.29 71.66 11.14 75.69 6.46 75.88 3.81 70.94 8.96 70.8 8.96 65.85 3.81 66.04 6.46 70.07 11.14"></polygon> <path class="cls-15" d="M71.37,10l-.47.54,0,0,0,0L70.36,10h1m-.5,4.12L71,16l-.29.37.16-2.26m5-10.26L70.94,9H70.8l-5-5.15L66,6.46l4,4.68-.59,8.3L72,16.29l-.37-5.15,4-4.68.18-2.65Z"></path> </g> <g> <path class="cls-15" d="M69.85,123.57c11.5,1,21.32.38,29.41-1.92H91.35V86.45l-1.84-2.4c-8.7,8-23.62,14.45-39.13,19.48v18.12H26.9v-11H24.59c-10.19,2.41-19,4.1-24.59,5.08v28.5C16.12,131.71,39.3,120.81,69.85,123.57Z"></path> <path class="cls-15" d="M89.37,85.51l1,1.28v35.63a81,81,0,0,1-10.36.63c-3.18,0-6.56-.16-10-.48-3.19-.29-6.4-.43-9.54-.43s-6,.13-9,.4V104.26c17.5-5.73,30.27-12,38-18.75M25.9,111.67v11H50.23A97.45,97.45,0,0,0,1,142.23V116.58c5.63-1,14.07-2.63,23.7-4.91h1.2M89.51,84.05c-8.7,8-23.62,14.45-39.13,19.48v18.12H26.9v-11H24.59c-10.19,2.41-19,4.1-24.59,5.08v28.5C14.41,133,34.48,123.14,60.4,123.14q4.6,0,9.45.43,5.31.48,10.14.48a70.72,70.72,0,0,0,19.27-2.4H91.35V86.45l-1.84-2.4Z"></path> </g> <g> <path class="cls-15" d="M109.7,151.69c1.34-5.56,5.12-10,11.24-13.3a43.37,43.37,0,0,0-18.57-5C85,132.87,72.72,144,71.8,144.86L51.71,169.77H68.78c.48,0,10.07.25,17.28,6.21h30C112.87,171.19,107.42,161.17,109.7,151.69Z"></path> <path class="cls-15" d="M101.12,134.4l1.22,0a42.16,42.16,0,0,1,16.47,4c-5.42,3.33-8.81,7.69-10.08,13-2.13,8.86,2.12,18,5.48,23.53H86.41c-7.46-6-17.2-6.2-17.63-6.21h-15l18.73-23.23c1-.89,12.51-11.14,28.59-11.14m0-1c-16.7,0-28.42,10.62-29.32,11.46L51.71,169.77H68.78c.48,0,10.07.25,17.28,6.21h30c-3.17-4.79-8.62-14.81-6.34-24.29,1.34-5.56,5.12-10,11.24-13.3a43.37,43.37,0,0,0-18.57-5l-1.25,0Z"></path> </g> <g> <path class="cls-15" d="M132.34,112.07V104.9h-7.62a38.77,38.77,0,0,1-2.16,3.73v2H121.1a35.38,35.38,0,0,1-6.27,6.32v4.66h-7.65c-9.44,4.39-21.72,6-36.74,4.71C50.65,157.83,21.3,170.1,0,174.87V176H43.21l26.63-33c.54-.52,13.41-12.84,32.57-12.26,13.68.4,26.9,7.3,39.32,20.48v-39.1Z"></path> <path class="cls-15" d="M131.34,105.9v7.17h9.39v35.62c-12.11-12.22-25-18.61-38.29-19l-1.33,0c-18.81,0-31.44,12.05-32,12.56l-.05,0,0,0L42.73,175H3.85c20.9-5.32,48.24-17.92,67.12-47.57,3.12.25,6.16.37,9,.37,10.74,0,20-1.73,27.38-5.13h8.43v-5.18a36.31,36.31,0,0,0,5.76-5.8h2v-2.74c.61-.94,1.19-1.93,1.77-3h6m1-1h-7.62a38.77,38.77,0,0,1-2.16,3.73v2H121.1a35.38,35.38,0,0,1-6.27,6.32v4.66h-7.65q-11,5.11-27.16,5.13-4.59,0-9.58-.42C50.65,157.83,21.3,170.1,0,174.87V176H43.21l26.63-33c.53-.51,12.83-12.28,31.27-12.28l1.3,0c13.68.4,26.9,7.3,39.32,20.48v-39.1h-9.39V104.9Z"></path> </g> <g> <path class="cls-15" d="M49.51,172.51,46.71,176h34.5a29.89,29.89,0,0,0-12.45-3.47Z"></path> <path class="cls-15" d="M68.74,173.51A29,29,0,0,1,76.42,175H48.8L50,173.51H68.74m0-1H49.51L46.71,176h34.5a29.89,29.89,0,0,0-12.45-3.47Z"></path> </g> <g> <path class="cls-15" d="M120.91,176h20.82v-21.1C134,160.9,123.12,170.71,120.91,176Z"></path> <path class="cls-15" d="M140.73,157v18H122.55c2.86-4.7,10.87-12.17,18.18-18m1-2.07c-7.71,6-18.61,15.83-20.82,21.1h20.82v-21.1Z"></path> </g> <g> <path class="cls-15" d="M139.72,153a73.83,73.83,0,0,0-15.85-13c-6.37,3-10.25,7.12-11.51,12.33-2.07,8.58,3.29,18.12,6.17,22.44C121.79,167.5,134.81,156.83,139.72,153Z"></path> <path class="cls-15" d="M123.81,141.13a72,72,0,0,1,14.42,11.76c-5.33,4.23-15.78,13-19.79,19.88-2.7-4.39-6.9-12.79-5.11-20.22,1.15-4.75,4.67-8.59,10.48-11.42m.06-1.14c-6.37,3-10.25,7.12-11.51,12.33-2.07,8.58,3.29,18.12,6.17,22.44,3.26-7.26,16.28-17.93,21.19-21.77a73.83,73.83,0,0,0-15.85-13Z"></path> </g> </g> </g> <g> <path class="cls-15" d="M.35,187.6H3.63v12.73l9.63-12.73h3.1v17.93H13.08V192.82L3.45,205.53H.35Z"></path> <path class="cls-15" d="M37.32,187.6v17.93H34v-7.68H24.71v7.68H21.38V187.6h3.33V195H34v-7.4Z"></path> <path class="cls-15" d="M55.36,190.42h-6v15.11h-3.3V190.42H40.19V187.6H55.36Z"></path> <path class="cls-15" d="M76.55,202.71v6.77H73.47v-3.95H58.25V187.6h3.28v15.11h9V187.6h3.3v15.11Z"></path> <path class="cls-15" d="M103.14,205.53l0-11.89-5.89,9.84H95.74l-5.89-9.68v11.73H86.7V187.6h2.74l7.09,11.86,7-11.86h2.71l0,17.93Z"></path> <path class="cls-15" d="M123.51,190.42h-8.89l0,15.11h-3.28V187.6h12.17Z"></path> <path class="cls-15" d="M141.73,187.6l-7.79,14.47A7.88,7.88,0,0,1,131.5,205a5.42,5.42,0,0,1-3.09,1,6.54,6.54,0,0,1-2.64-.57l.82-2.61a6,6,0,0,0,1.74.33,3.09,3.09,0,0,0,2.67-1.66l.28-.44-7.15-13.37h3.56l5.3,10.53,5.46-10.53Z"></path> <path class="cls-15" d="M8.23,220.63a2.44,2.44,0,0,1,.51,1.58,2.47,2.47,0,0,1-1,2.1,4.71,4.71,0,0,1-2.88.75H0V214.81H4.58a4.69,4.69,0,0,1,2.7.68,2.26,2.26,0,0,1,1,1.95,2.36,2.36,0,0,1-1.51,2.29A2.7,2.7,0,0,1,8.23,220.63Zm-6.36-1.45H4.42a2.35,2.35,0,0,0,1.41-.36,1.48,1.48,0,0,0,0-2.18,2.28,2.28,0,0,0-1.41-.37H1.87Zm5,2.89c0-1-.67-1.49-2-1.49H1.87v3H4.8C6.15,223.59,6.82,223.08,6.82,222.07Z"></path> <path class="cls-15" d="M12.11,224.52a5,5,0,0,1-2-1.89,5.42,5.42,0,0,1,0-5.4,5,5,0,0,1,2-1.89,5.88,5.88,0,0,1,2.82-.68,5.89,5.89,0,0,1,2.83.68,5,5,0,0,1,2,1.88,5.53,5.53,0,0,1,0,5.42,5,5,0,0,1-2,1.88,5.89,5.89,0,0,1-2.83.68A5.88,5.88,0,0,1,12.11,224.52Zm4.67-1.45a3.33,3.33,0,0,0,1.29-1.29,3.88,3.88,0,0,0,0-3.7,3.33,3.33,0,0,0-1.29-1.29,3.93,3.93,0,0,0-3.69,0,3.33,3.33,0,0,0-1.29,1.29,3.88,3.88,0,0,0,0,3.7,3.33,3.33,0,0,0,1.29,1.29,3.93,3.93,0,0,0,3.69,0Z"></path> <path class="cls-15" d="M28.38,215.25a3.38,3.38,0,0,1,1.52,1.25,3.9,3.9,0,0,1,0,3.89,3.36,3.36,0,0,1-1.52,1.27,5.72,5.72,0,0,1-2.32.44H23.75v3H21.84V214.81h4.22A5.55,5.55,0,0,1,28.38,215.25ZM27.86,220a1.83,1.83,0,0,0,.65-1.51,1.86,1.86,0,0,0-.65-1.51,2.94,2.94,0,0,0-1.89-.52H23.75v4.07H26A2.94,2.94,0,0,0,27.86,220Z"></path> <path class="cls-15" d="M33.57,224.52a4.91,4.91,0,0,1-2-1.89,5.42,5.42,0,0,1,0-5.4,4.91,4.91,0,0,1,2-1.89,6.21,6.21,0,0,1,5.65,0,5,5,0,0,1,2,1.88,5.46,5.46,0,0,1,0,5.42,5,5,0,0,1-2,1.88,6.21,6.21,0,0,1-5.65,0Zm4.67-1.45a3.33,3.33,0,0,0,1.29-1.29,3.88,3.88,0,0,0,0-3.7,3.33,3.33,0,0,0-1.29-1.29,3.64,3.64,0,0,0-1.84-.46,3.71,3.71,0,0,0-1.85.46,3.37,3.37,0,0,0-1.28,1.29,3.88,3.88,0,0,0,0,3.7,3.37,3.37,0,0,0,1.28,1.29,3.71,3.71,0,0,0,1.85.46A3.64,3.64,0,0,0,38.24,223.07Z"></path> <path class="cls-15" d="M43.32,214.81h8v1.56H45.2v2.52h3a4.41,4.41,0,0,1,2.8.77,2.67,2.67,0,0,1,1,2.22,2.82,2.82,0,0,1-1.05,2.35,4.8,4.8,0,0,1-3,.83H43.32Zm4.51,8.78a2.78,2.78,0,0,0,1.67-.42,1.46,1.46,0,0,0,.57-1.23c0-1.06-.74-1.58-2.24-1.58H45.2v3.23Z"></path> <path class="cls-15" d="M60.92,219.1a3.06,3.06,0,0,1,1,2.46,3.21,3.21,0,0,1-1.08,2.6,4.64,4.64,0,0,1-3,.9h-4.4V214.81h1.87v3.47h2.84A4.33,4.33,0,0,1,60.92,219.1Zm-1.52,4a1.86,1.86,0,0,0,.6-1.5c0-1.23-.77-1.85-2.31-1.85H55.24v3.86h2.45A2.57,2.57,0,0,0,59.4,223.08Z"></path> <path class="cls-15" d="M70.82,223.46v1.6H63.13V214.81h7.48v1.59H65v2.67H70v1.56H65v2.83Z"></path> <path class="cls-15" d="M80.47,220.63a2.44,2.44,0,0,1,.51,1.58,2.48,2.48,0,0,1-1,2.1,4.76,4.76,0,0,1-2.89.75H72.24V214.81h4.58a4.69,4.69,0,0,1,2.7.68,2.26,2.26,0,0,1,1,1.95,2.33,2.33,0,0,1-1.5,2.29A2.7,2.7,0,0,1,80.47,220.63Zm-6.36-1.45h2.55a2.33,2.33,0,0,0,1.41-.36,1.48,1.48,0,0,0,0-2.18,2.26,2.26,0,0,0-1.41-.37H74.11Zm5,2.89c0-1-.67-1.49-2-1.49H74.11v3H77C78.39,223.59,79.06,223.08,79.06,222.07Z"></path> <path class="cls-15" d="M90,219.1a3,3,0,0,1,1,2.46,3.21,3.21,0,0,1-1.08,2.6,4.64,4.64,0,0,1-3.05.9h-4.4V214.81h1.87v3.47h2.84A4.3,4.3,0,0,1,90,219.1Zm-1.51,4a1.86,1.86,0,0,0,.6-1.5c0-1.23-.77-1.85-2.32-1.85H84.32v3.86h2.44A2.58,2.58,0,0,0,88.48,223.08Zm4-8.27h1.87v10.25H92.46Z"></path> <path class="cls-15" d="M106.78,216.42H101.7v8.64H99.84V214.81h7Z"></path> <path class="cls-15" d="M108.42,224.52a5,5,0,0,1-2-1.89,5.49,5.49,0,0,1,0-5.4,5,5,0,0,1,2-1.89,6.21,6.21,0,0,1,5.65,0,5,5,0,0,1,2,1.88,5.53,5.53,0,0,1,0,5.42,5,5,0,0,1-2,1.88,6.21,6.21,0,0,1-5.65,0Zm4.67-1.45a3.33,3.33,0,0,0,1.29-1.29,3.88,3.88,0,0,0,0-3.7,3.33,3.33,0,0,0-1.29-1.29,3.93,3.93,0,0,0-3.69,0,3.33,3.33,0,0,0-1.29,1.29,3.88,3.88,0,0,0,0,3.7,3.33,3.33,0,0,0,1.29,1.29,3.93,3.93,0,0,0,3.69,0Z"></path> <path class="cls-15" d="M124.69,215.25a3.38,3.38,0,0,1,1.52,1.25,3.83,3.83,0,0,1,0,3.89,3.36,3.36,0,0,1-1.52,1.27,5.72,5.72,0,0,1-2.32.44h-2.31v3h-1.9V214.81h4.21A5.55,5.55,0,0,1,124.69,215.25Zm-.52,4.71a1.83,1.83,0,0,0,.65-1.51,1.86,1.86,0,0,0-.65-1.51,2.94,2.94,0,0,0-1.89-.52h-2.22v4.07h2.22A2.94,2.94,0,0,0,124.17,220Z"></path> <path class="cls-15" d="M135.38,219.1a3,3,0,0,1,1,2.46,3.21,3.21,0,0,1-1.08,2.6,4.66,4.66,0,0,1-3,.9h-4.41V214.81h1.88v3.47h2.84A4.3,4.3,0,0,1,135.38,219.1Zm-1.51,4a1.86,1.86,0,0,0,.6-1.5c0-1.23-.77-1.85-2.32-1.85h-2.44v3.86h2.44A2.6,2.6,0,0,0,133.87,223.08Zm4-8.27h1.87v10.25h-1.87Z"></path> </g> </g> </g> </g> </svg> 