<?xml version="1.0" encoding="UTF-8"?> <svg xmlns="http://www.w3.org/2000/svg" width="512" height="512" viewBox="0 0 512 512" fill="none"> <g clip-path="url(#clip0_2110_14)"> <path d="M502 444H482V56C482 50.477 477.522 46 472 46H398.333V10C398.333 4.477 393.855 0 388.333 0H123.667C118.145 0 113.667 4.477 113.667 10V46H40C34.478 46 30 50.477 30 56V444H10C4.477 444 0 448.477 0 454V502C0 507.523 4.477 512 10 512H211.004C216.526 512 221.004 507.523 221.004 502C221.004 496.477 216.526 492 211.004 492H20V464H492V492H300.998C295.476 492 290.998 496.477 290.998 502C290.998 507.523 295.476 512 300.998 512H502C507.522 512 512 507.523 512 502V454C512 448.477 507.522 444 502 444ZM133.667 20H378.333V46H133.667V20ZM246 444H194V384C194 353.218 216.553 327.615 246 322.818V444ZM266 444V322.818C295.447 327.615 318 353.218 318 384V444H266ZM338 444V384C338 338.785 301.215 302 256 302C210.785 302 174 338.785 174 384V444H50V66H462V444H338Z" fill="#FEAF39"></path> <path d="M136 110H88C82.478 110 78 114.477 78 120V168C78 173.523 82.478 178 88 178H136C141.523 178 146 173.523 146 168V120C146 114.477 141.523 110 136 110ZM126 158H98V130H126V158Z" fill="#FEAF39"></path> <path d="M232 110H184C178.477 110 174 114.477 174 120V168C174 173.523 178.477 178 184 178H232C237.523 178 242 173.523 242 168V120C242 114.477 237.523 110 232 110ZM222 158H194V130H222V158Z" fill="#FEAF39"></path> <path d="M328 110H280C274.478 110 270 114.477 270 120V168C270 173.523 274.478 178 280 178H328C333.522 178 338 173.523 338 168V120C338 114.477 333.522 110 328 110ZM318 158H290V130H318V158Z" fill="#FEAF39"></path> <path d="M424 110H376C370.478 110 366 114.477 366 120V168C366 173.523 370.478 178 376 178H424C429.522 178 434 173.523 434 168V120C434 114.477 429.522 110 424 110ZM414 158H386V130H414V158Z" fill="#FEAF39"></path> <path d="M136 206H88C82.478 206 78 210.477 78 216V264C78 269.523 82.478 274 88 274H136C141.523 274 146 269.523 146 264V216C146 210.477 141.523 206 136 206ZM126 254H98V226H126V254Z" fill="#FEAF39"></path> <path d="M232 206H184C178.477 206 174 210.477 174 216V264C174 269.523 178.477 274 184 274H232C237.523 274 242 269.523 242 264V216C242 210.477 237.523 206 232 206ZM222 254H194V226H222V254Z" fill="#FEAF39"></path> <path d="M328 206H280C274.478 206 270 210.477 270 216V264C270 269.523 274.478 274 280 274H328C333.522 274 338 269.523 338 264V216C338 210.477 333.522 206 328 206ZM318 254H290V226H318V254Z" fill="#FEAF39"></path> <path d="M424 206H376C370.478 206 366 210.477 366 216V264C366 269.523 370.478 274 376 274H424C429.522 274 434 269.523 434 264V216C434 210.477 429.522 206 424 206ZM414 254H386V226H414V254Z" fill="#FEAF39"></path> <path d="M136 302H88C82.478 302 78 306.477 78 312V360C78 365.523 82.478 370 88 370H136C141.523 370 146 365.523 146 360V312C146 306.477 141.523 302 136 302ZM126 350H98V322H126V350Z" fill="#FEAF39"></path> <path d="M424 302H376C370.478 302 366 306.477 366 312V360C366 365.523 370.478 370 376 370H424C429.522 370 434 365.523 434 360V312C434 306.477 429.522 302 424 302ZM414 350H386V322H414V350Z" fill="#FEAF39"></path> <path d="M256 492C253.37 492 250.79 493.07 248.93 494.93C247.07 496.79 246 499.37 246 502C246 504.63 247.069 507.21 248.93 509.07C250.79 510.93 253.37 512 256 512C258.63 512 261.21 510.93 263.069 509.07C264.929 507.21 266 504.63 266 502C266 499.37 264.93 496.79 263.069 494.93C261.21 493.07 258.63 492 256 492Z" fill="#FEAF39"></path> </g> <defs> <clipPath id="clip0_2110_14"> <rect width="512" height="512" fill="white"></rect> </clipPath> </defs> </svg> 