<?xml version="1.0" encoding="UTF-8"?> <svg xmlns="http://www.w3.org/2000/svg" width="428" height="384" viewBox="0 0 428 384" fill="none"> <path d="M235.334 0C195.728 5.9017e-07 157.744 15.7333 129.739 43.7387C101.734 71.7442 86.0003 109.728 86.0003 149.333C86.0003 188.939 101.734 226.923 129.739 254.928C157.744 282.933 195.728 298.667 235.334 298.667C263.623 298.667 290.755 287.429 310.758 267.425C330.762 247.421 342 220.29 342 192C342 163.71 330.762 136.579 310.758 116.575C290.755 96.5714 263.623 85.3333 235.334 85.3333C218.36 85.3333 202.081 92.0762 190.079 104.079C178.076 116.081 171.334 132.359 171.334 149.333C171.334 166.307 178.076 182.586 190.079 194.588C202.081 206.591 218.36 213.333 235.334 213.333C240.992 213.333 246.418 211.086 250.419 207.085C254.419 203.084 256.667 197.658 256.667 192C256.667 186.342 254.419 180.916 250.419 176.915C246.418 172.914 240.992 170.667 235.334 170.667C229.676 170.667 224.25 168.419 220.249 164.418C216.248 160.418 214 154.991 214 149.333C214 143.675 216.248 138.249 220.249 134.248C224.25 130.248 229.676 128 235.334 128C252.308 128 268.586 134.743 280.589 146.745C292.591 158.747 299.334 175.026 299.334 192C299.334 208.974 292.591 225.253 280.589 237.255C268.586 249.257 252.308 256 235.334 256C207.044 256 179.913 244.762 159.909 224.758C139.905 204.754 128.667 177.623 128.667 149.333C128.667 121.044 139.905 93.9125 159.909 73.9086C179.913 53.9047 207.044 42.6667 235.334 42.6667C274.939 42.6667 312.923 58.4 340.928 86.4054C368.934 114.411 384.667 152.394 384.667 192C384.667 231.606 368.934 269.589 340.928 297.595C312.923 325.6 274.939 341.333 235.334 341.333C184.412 341.333 135.576 321.105 99.5692 285.098C63.5622 249.091 43.3337 200.255 43.3337 149.333C43.3337 143.675 41.086 138.249 37.0853 134.248C33.0845 130.248 27.6583 128 22.0003 128C16.3424 128 10.9162 130.248 6.91538 134.248C2.9146 138.249 0.666992 143.675 0.666992 149.333C0.666992 211.571 25.3907 271.259 69.3993 315.268C113.408 359.276 173.096 384 235.334 384C286.255 384 335.091 363.771 371.098 327.764C407.105 291.758 427.334 242.922 427.334 192C427.334 141.078 407.105 92.2425 371.098 56.2355C335.091 20.2285 286.255 7.5879e-07 235.334 0Z" fill="white"></path> </svg> 