<?xml version="1.0" encoding="UTF-8"?> <svg xmlns="http://www.w3.org/2000/svg" width="512" height="512" viewBox="0 0 512 512" fill="none"> <g clip-path="url(#clip0_2110_10)"> <path d="M478.78 0.0141602H95.9649C77.6469 0.0141602 62.7437 14.9163 62.7437 33.2343V101.126C62.7437 105.268 66.1005 108.625 70.2433 108.625C74.3861 108.625 77.7429 105.268 77.7429 101.126V33.2343C77.7429 23.1869 85.9175 15.0133 95.9649 15.0133H478.78C488.827 15.0133 497.002 23.1869 497.002 33.2343V288.44C497.013 292.131 495.898 295.737 493.807 298.778C491.715 301.819 488.747 304.15 485.297 305.46C481.97 299.172 475.037 294.824 467.018 294.824H458.401C453.515 294.824 449.029 296.436 445.514 299.116C441.999 296.436 437.512 294.824 432.626 294.824H424.01C419.124 294.824 414.637 296.436 411.123 299.116C407.608 296.436 403.12 294.824 398.235 294.824H389.62C387.752 294.824 385.951 295.079 384.231 295.519V287.419H468.861C473.768 287.419 477.761 283.393 477.761 278.441V43.2338C477.761 38.2831 473.768 34.2553 468.861 34.2553H116.789C111.883 34.2553 107.891 38.2821 107.891 43.2338V266.58L79.8828 296.953C78.5079 294.354 77.7429 291.443 77.7429 288.44V131.895C77.7429 127.752 74.3861 124.395 70.2433 124.395C66.1005 124.395 62.7437 127.752 62.7437 131.895V180.343L11.6495 259.612C3.86888 271.649 -0.181784 285.716 0.00626242 300.047C0.194308 314.378 4.61268 328.334 12.7065 340.163L45.2317 387.828C49.8042 394.523 52.3892 402.376 52.6883 410.478L54.6792 463.855C54.7532 465.842 55.6137 467.719 57.0715 469.073C58.5294 470.426 60.4651 471.144 62.4527 471.07C64.4404 470.996 66.3173 470.136 67.6705 468.678C69.0237 467.22 69.7423 465.285 69.6683 463.297L67.6775 409.92C67.2735 398.993 63.7872 388.403 57.621 379.373L25.0958 331.708C18.6678 322.315 15.1587 311.231 15.0092 299.85C14.8598 288.469 18.0767 277.297 24.2558 267.739L62.7427 208.028V288.439C62.7456 295.617 65.0721 302.601 69.3744 308.346L64.2866 313.864C62.9384 315.326 62.2262 317.264 62.3068 319.252C62.3875 321.239 63.2543 323.113 64.7166 324.461C66.1789 325.81 68.117 326.522 70.1044 326.441C72.0918 326.361 73.9658 325.494 75.314 324.031L154.105 238.588C158.016 234.348 164.583 234.266 168.619 238.21C170.2 239.762 171.231 241.788 171.552 243.981C171.874 246.173 171.47 248.41 170.401 250.35L123.034 335.929C119.734 341.89 120.4 349.142 124.729 354.403C134.148 365.844 136.964 381.643 132.078 395.634C129.76 402.267 128.497 409.223 128.335 416.247L127.425 455.389C127.402 456.374 127.573 457.353 127.929 458.272C128.284 459.19 128.817 460.03 129.497 460.742C130.177 461.455 130.991 462.026 131.892 462.424C132.793 462.822 133.763 463.039 134.748 463.062L134.926 463.064C136.884 463.063 138.764 462.296 140.165 460.928C141.565 459.559 142.375 457.697 142.42 455.739L143.33 416.597C143.456 411.138 144.437 405.733 146.239 400.578C152.84 381.676 149.036 360.329 136.31 344.869C136.118 344.638 136.001 344.354 135.973 344.055C135.946 343.755 136.01 343.455 136.157 343.192L148.074 321.661H334.839V357.294L310.966 345.67C301.66 341.142 290.672 343.409 283.624 351.318C274.601 361.443 274.732 377.17 283.923 387.121L328.852 435.764C332.657 439.883 334.839 445.668 334.839 451.634V504.487C334.839 508.629 338.196 511.986 342.338 511.986C346.481 511.986 349.838 508.629 349.838 504.487V451.634C349.838 441.796 346.298 432.545 339.871 425.587L294.941 376.944C291.061 372.744 291.006 365.578 294.822 361.297C297.392 358.414 301.151 357.574 304.399 359.156L339.055 376.029C344.043 378.469 349.837 374.765 349.837 369.286V240.974C349.837 234.663 354.188 229.53 359.533 229.53C364.879 229.53 369.229 234.664 369.229 240.974V369.286C369.229 373.429 372.586 376.786 376.729 376.786C380.871 376.786 384.228 373.429 384.228 369.286V313.819C384.228 311.653 386.696 309.823 389.617 309.823H398.232C401.153 309.823 403.621 311.653 403.621 313.819V369.286C403.621 373.429 406.978 376.786 411.121 376.786C415.263 376.786 418.62 373.429 418.62 369.286V313.819C418.62 311.653 421.087 309.823 424.008 309.823H432.624C435.545 309.823 438.012 311.653 438.012 313.819V369.286C438.012 373.429 441.369 376.786 445.512 376.786C449.655 376.786 453.011 373.429 453.011 369.286V313.819C453.011 311.653 455.479 309.823 458.4 309.823H467.017C469.937 309.823 472.404 311.653 472.404 313.819V369.286C472.404 370.059 472.574 371.033 472.812 371.725L479.868 392.238C481.514 397.025 482.16 402.257 481.734 407.366C481.605 409.328 482.253 411.263 483.536 412.753C484.82 414.243 486.637 415.169 488.597 415.332C490.557 415.495 492.503 414.882 494.015 413.625C495.527 412.367 496.485 410.566 496.683 408.61C497.279 401.446 496.37 394.097 494.051 387.359L487.404 368.033V320.528C501.739 316.72 512.001 303.746 512.001 288.439V33.2343C512 14.9163 497.098 0.0141602 478.78 0.0141602ZM156.377 306.661L167.027 287.419H334.84V306.661H156.377ZM359.535 214.53C346.362 214.53 335.567 225.632 334.876 239.555H310.795C309.37 239.553 308.003 238.986 306.995 237.979C305.987 236.971 305.42 235.604 305.418 234.178V201.868C305.42 200.443 305.987 199.076 306.995 198.068C308.003 197.06 309.37 196.493 310.795 196.491H344.541C348.684 196.491 352.041 193.135 352.041 188.992C352.041 184.849 348.684 181.492 344.541 181.492H310.795C299.56 181.492 290.419 190.633 290.419 201.868V234.178C290.419 245.414 299.56 254.554 310.795 254.554H334.839V272.42H175.329L183.524 257.613C188.982 247.75 187.164 235.359 179.101 227.482C168.993 217.603 152.704 217.98 143.078 228.42L122.89 250.312V49.2545H462.762V272.42H384.231V254.554H411.473C422.708 254.554 431.849 245.414 431.849 234.178V201.868C431.849 190.633 422.708 181.492 411.473 181.492H374.529C370.386 181.492 367.029 184.849 367.029 188.992C367.029 193.135 370.386 196.491 374.529 196.491H411.473C412.898 196.493 414.265 197.06 415.273 198.068C416.281 199.076 416.848 200.443 416.849 201.868V234.178C416.848 235.604 416.281 236.971 415.273 237.979C414.265 238.986 412.898 239.553 411.473 239.555H384.194C383.502 225.631 372.707 214.53 359.535 214.53Z" fill="#FEAF39"></path> <path d="M100.536 166.937V154.739C100.536 150.596 97.1795 147.239 93.0367 147.239C88.8939 147.239 85.5371 150.596 85.5371 154.739V166.937C85.5371 171.08 88.8939 174.437 93.0367 174.437C97.1795 174.437 100.536 171.079 100.536 166.937ZM481.094 430.176C480.26 429.653 479.33 429.3 478.359 429.137C477.388 428.973 476.394 429.003 475.434 429.224C474.474 429.444 473.567 429.852 472.765 430.423C471.962 430.995 471.281 431.719 470.758 432.553L461.565 447.242C457.407 453.881 455.21 461.634 455.21 469.658V504.487C455.21 508.629 458.567 511.986 462.709 511.986C466.852 511.986 470.209 508.629 470.209 504.487V469.658C470.209 464.452 471.616 459.452 474.278 455.2L483.472 440.512C484.528 438.826 484.87 436.79 484.424 434.851C483.978 432.913 482.78 431.231 481.094 430.176ZM305.778 105.82L226.183 62.0207C224.81 61.2615 223.266 60.8634 221.696 60.8638C220.126 60.8641 218.582 61.2629 217.209 62.0227L137.617 105.821C136.157 106.625 134.94 107.806 134.092 109.241C133.244 110.676 132.797 112.312 132.797 113.978C132.798 115.645 133.245 117.281 134.093 118.716C134.941 120.15 136.159 121.331 137.619 122.134L162.264 135.696V187.726C162.264 194.033 166.032 199.685 171.862 202.126C204.932 215.963 238.465 215.964 271.537 202.125C274.381 200.942 276.81 198.943 278.518 196.38C280.226 193.817 281.136 190.806 281.133 187.726V135.696L305.778 122.133C307.238 121.33 308.456 120.149 309.304 118.715C310.153 117.28 310.6 115.644 310.6 113.977C310.6 112.31 310.153 110.674 309.304 109.239C308.456 107.804 307.238 106.624 305.778 105.82ZM266.133 187.726C266.131 187.848 266.094 187.966 266.024 188.066C265.955 188.167 265.858 188.244 265.744 188.289C236.107 200.692 207.29 200.693 177.653 188.29C177.54 188.245 177.442 188.167 177.372 188.067C177.303 187.967 177.265 187.848 177.262 187.726V143.949L217.204 165.928C218.58 166.689 220.126 167.089 221.699 167.091C223.269 167.09 224.812 166.691 226.186 165.931L244.88 155.644V171.8C244.88 175.942 248.237 179.299 252.38 179.299C256.523 179.299 259.88 175.942 259.88 171.8V147.39L266.131 143.95V187.726H266.133ZM253.556 133.75L226.848 108.524C226.133 107.848 225.29 107.319 224.37 106.968C223.45 106.617 222.469 106.451 221.485 106.479C220.5 106.507 219.531 106.729 218.632 107.132C217.734 107.535 216.923 108.111 216.247 108.827C215.571 109.543 215.042 110.385 214.691 111.305C214.34 112.226 214.174 113.206 214.202 114.191C214.23 115.175 214.452 116.144 214.855 117.043C215.258 117.942 215.834 118.752 216.55 119.429L239.754 141.344L221.698 151.28L153.907 113.976L221.698 76.6719L289.489 113.976C280.625 118.855 262.371 128.899 253.556 133.75ZM337.77 114.389H393.925C398.068 114.389 401.425 111.032 401.425 106.889C401.425 102.746 398.068 99.3897 393.925 99.3897H337.77C333.628 99.3897 330.271 102.746 330.271 106.889C330.271 111.032 333.629 114.389 337.77 114.389ZM441.423 141.295C441.423 137.153 438.066 133.796 433.923 133.796H337.77C333.628 133.796 330.271 137.153 330.271 141.295C330.271 145.438 333.628 148.795 337.77 148.795H433.923C438.066 148.795 441.423 145.438 441.423 141.295Z" fill="#FEAF39"></path> </g> <defs> <clipPath id="clip0_2110_10"> <rect width="512" height="512" fill="white"></rect> </clipPath> </defs> </svg> 