<?xml version="1.0" encoding="UTF-8"?> <svg xmlns="http://www.w3.org/2000/svg" xmlns:xlink="http://www.w3.org/1999/xlink" width="512" height="512" x="0" y="0" viewBox="0 0 682.667 682.667" style="enable-background:new 0 0 512 512" xml:space="preserve" class=""> <g> <defs> <clipPath id="a" clipPathUnits="userSpaceOnUse"> <path d="M0 512h512V0H0Z" fill="#feaf39" opacity="1" data-original="#000000"></path> </clipPath> </defs> <g clip-path="url(#a)" transform="matrix(1.33333 0 0 -1.33333 0 682.667)"> <path d="M0 0c0-83.685-67.84-151.524-151.524-151.524-83.685 0-151.525 67.839-151.525 151.524s67.84 151.524 151.525 151.524C-67.84 151.524 0 83.685 0 0Z" style="stroke-width:15;stroke-linecap:round;stroke-linejoin:round;stroke-miterlimit:10;stroke-dasharray:none;stroke-opacity:1" transform="translate(407.524 256)" fill="none" stroke="#feaf39" stroke-width="15" stroke-linecap="round" stroke-linejoin="round" stroke-miterlimit="10" stroke-dasharray="none" stroke-opacity="" data-original="#000000" opacity="1" class=""></path> <path d="M0 0c10.76-7.26 17.83-19.57 17.83-33.52 0-22.32-18.09-40.41-40.41-40.41-22.32 0-40.41 18.09-40.41 40.41 0 18.49 12.42 34.08 29.37 38.89" style="stroke-width:15;stroke-linecap:round;stroke-linejoin:round;stroke-miterlimit:10;stroke-dasharray:none;stroke-opacity:1" transform="translate(92.71 475.39)" fill="none" stroke="#feaf39" stroke-width="15" stroke-linecap="round" stroke-linejoin="round" stroke-miterlimit="10" stroke-dasharray="none" stroke-opacity="" data-original="#000000" opacity="1" class=""></path> <path d="M0 0c0-16.737-13.567-30.305-30.305-30.305-16.737 0-30.304 13.568-30.304 30.305 0 16.737 13.567 30.305 30.304 30.305C-13.567 30.305 0 16.737 0 0Z" style="stroke-width:15;stroke-linecap:round;stroke-linejoin:round;stroke-miterlimit:10;stroke-dasharray:none;stroke-opacity:1" transform="translate(286.305 474.195)" fill="none" stroke="#feaf39" stroke-width="15" stroke-linecap="round" stroke-linejoin="round" stroke-miterlimit="10" stroke-dasharray="none" stroke-opacity="" data-original="#000000" opacity="1" class=""></path> <path d="M0 0c0-16.737-13.567-30.305-30.305-30.305-16.737 0-30.304 13.568-30.304 30.305 0 16.737 13.567 30.305 30.304 30.305C-13.567 30.305 0 16.737 0 0Z" style="stroke-width:15;stroke-linecap:round;stroke-linejoin:round;stroke-miterlimit:10;stroke-dasharray:none;stroke-opacity:1" transform="translate(286.305 37.805)" fill="none" stroke="#feaf39" stroke-width="15" stroke-linecap="round" stroke-linejoin="round" stroke-miterlimit="10" stroke-dasharray="none" stroke-opacity="" data-original="#000000" opacity="1" class=""></path> <path d="M0 0c0-16.737-13.568-30.305-30.305-30.305-16.737 0-30.304 13.568-30.304 30.305 0 16.737 13.567 30.305 30.304 30.305S0 16.737 0 0Z" style="stroke-width:15;stroke-linecap:round;stroke-linejoin:round;stroke-miterlimit:10;stroke-dasharray:none;stroke-opacity:1" transform="translate(504.5 256)" fill="none" stroke="#feaf39" stroke-width="15" stroke-linecap="round" stroke-linejoin="round" stroke-miterlimit="10" stroke-dasharray="none" stroke-opacity="" data-original="#000000" opacity="1" class=""></path> <path d="M0 0c0-16.737-13.567-30.305-30.305-30.305-16.736 0-30.304 13.568-30.304 30.305 0 16.737 13.568 30.305 30.304 30.305C-13.567 30.305 0 16.737 0 0Z" style="stroke-width:15;stroke-linecap:round;stroke-linejoin:round;stroke-miterlimit:10;stroke-dasharray:none;stroke-opacity:1" transform="translate(68.11 256)" fill="none" stroke="#feaf39" stroke-width="15" stroke-linecap="round" stroke-linejoin="round" stroke-miterlimit="10" stroke-dasharray="none" stroke-opacity="" data-original="#000000" opacity="1" class=""></path> <path d="M0 0h67.35v44.44c0 22.32-18.09 40.41-40.4 40.41h-88.9c-22.31 0-40.4-18.09-40.4-40.41V0H-35" style="stroke-width:15;stroke-linecap:round;stroke-linejoin:round;stroke-miterlimit:10;stroke-dasharray:none;stroke-opacity:1" transform="translate(273.5 171.15)" fill="none" stroke="#feaf39" stroke-width="15" stroke-linecap="round" stroke-linejoin="round" stroke-miterlimit="10" stroke-dasharray="none" stroke-opacity="" data-original="#000000" opacity="1" class=""></path> <path d="M0 0v-20.203" style="stroke-width:15;stroke-linecap:round;stroke-linejoin:round;stroke-miterlimit:10;stroke-dasharray:none;stroke-opacity:1" transform="translate(298.427 191.35)" fill="none" stroke="#feaf39" stroke-width="15" stroke-linecap="round" stroke-linejoin="round" stroke-miterlimit="10" stroke-dasharray="none" stroke-opacity="" data-original="#000000" opacity="1" class=""></path> <path d="M0 0v-20.203" style="stroke-width:15;stroke-linecap:round;stroke-linejoin:round;stroke-miterlimit:10;stroke-dasharray:none;stroke-opacity:1" transform="translate(213.573 191.35)" fill="none" stroke="#feaf39" stroke-width="15" stroke-linecap="round" stroke-linejoin="round" stroke-miterlimit="10" stroke-dasharray="none" stroke-opacity="" data-original="#000000" opacity="1" class=""></path> <path d="M0 0c0-27.895-22.613-50.508-50.508-50.508-27.894 0-50.508 22.613-50.508 50.508 0 27.895 22.614 50.508 50.508 50.508C-22.613 50.508 0 27.895 0 0Z" style="stroke-width:15;stroke-linecap:round;stroke-linejoin:round;stroke-miterlimit:10;stroke-dasharray:none;stroke-opacity:1" transform="translate(306.508 306.508)" fill="none" stroke="#feaf39" stroke-width="15" stroke-linecap="round" stroke-linejoin="round" stroke-miterlimit="10" stroke-dasharray="none" stroke-opacity="" data-original="#000000" opacity="1" class=""></path> <path d="M0 0h36.366" style="stroke-width:15;stroke-linecap:round;stroke-linejoin:round;stroke-miterlimit:10;stroke-dasharray:none;stroke-opacity:1" transform="translate(68.11 256)" fill="none" stroke="#feaf39" stroke-width="15" stroke-linecap="round" stroke-linejoin="round" stroke-miterlimit="10" stroke-dasharray="none" stroke-opacity="" data-original="#000000" opacity="1" class=""></path> <path d="M0 0h-36.366" style="stroke-width:15;stroke-linecap:round;stroke-linejoin:round;stroke-miterlimit:10;stroke-dasharray:none;stroke-opacity:1" transform="translate(443.89 256)" fill="none" stroke="#feaf39" stroke-width="15" stroke-linecap="round" stroke-linejoin="round" stroke-miterlimit="10" stroke-dasharray="none" stroke-opacity="" data-original="#000000" opacity="1" class=""></path> <path d="M0 0v-36.366" style="stroke-width:15;stroke-linecap:round;stroke-linejoin:round;stroke-miterlimit:10;stroke-dasharray:none;stroke-opacity:1" transform="translate(256 443.89)" fill="none" stroke="#feaf39" stroke-width="15" stroke-linecap="round" stroke-linejoin="round" stroke-miterlimit="10" stroke-dasharray="none" stroke-opacity="" data-original="#000000" opacity="1" class=""></path> <path d="M0 0v36.366" style="stroke-width:15;stroke-linecap:round;stroke-linejoin:round;stroke-miterlimit:10;stroke-dasharray:none;stroke-opacity:1" transform="translate(256 68.11)" fill="none" stroke="#feaf39" stroke-width="15" stroke-linecap="round" stroke-linejoin="round" stroke-miterlimit="10" stroke-dasharray="none" stroke-opacity="" data-original="#000000" opacity="1" class=""></path> <path d="m0 0 48.488-48.488" style="stroke-width:15;stroke-linecap:round;stroke-linejoin:round;stroke-miterlimit:10;stroke-dasharray:none;stroke-opacity:1" transform="translate(99.425 412.575)" fill="none" stroke="#feaf39" stroke-width="15" stroke-linecap="round" stroke-linejoin="round" stroke-miterlimit="10" stroke-dasharray="none" stroke-opacity="" data-original="#000000" opacity="1" class=""></path> <path d="M0 0c0-22.316-18.091-40.407-40.406-40.407-22.317 0-40.407 18.091-40.407 40.407 0 22.316 18.09 40.406 40.407 40.406C-18.091 40.406 0 22.316 0 0Z" style="stroke-width:15;stroke-linecap:round;stroke-linejoin:round;stroke-miterlimit:10;stroke-dasharray:none;stroke-opacity:1" transform="translate(482.276 441.87)" fill="none" stroke="#feaf39" stroke-width="15" stroke-linecap="round" stroke-linejoin="round" stroke-miterlimit="10" stroke-dasharray="none" stroke-opacity="" data-original="#000000" opacity="1" class=""></path> <path d="m0 0-48.488-48.488" style="stroke-width:15;stroke-linecap:round;stroke-linejoin:round;stroke-miterlimit:10;stroke-dasharray:none;stroke-opacity:1" transform="translate(412.575 412.575)" fill="none" stroke="#feaf39" stroke-width="15" stroke-linecap="round" stroke-linejoin="round" stroke-miterlimit="10" stroke-dasharray="none" stroke-opacity="" data-original="#000000" opacity="1" class=""></path> <path d="M0 0c1.34-4.02 2.07-8.33 2.07-12.81 0-22.32-18.09-40.41-40.41-40.41-22.32 0-40.41 18.09-40.41 40.41 0 22.32 18.09 40.41 40.41 40.41 5.22 0 10.2-.99 14.78-2.79" style="stroke-width:15;stroke-linecap:round;stroke-linejoin:round;stroke-miterlimit:10;stroke-dasharray:none;stroke-opacity:1" transform="translate(480.21 82.94)" fill="none" stroke="#feaf39" stroke-width="15" stroke-linecap="round" stroke-linejoin="round" stroke-miterlimit="10" stroke-dasharray="none" stroke-opacity="" data-original="#000000" opacity="1" class=""></path> <path d="m0 0-48.488 48.488" style="stroke-width:15;stroke-linecap:round;stroke-linejoin:round;stroke-miterlimit:10;stroke-dasharray:none;stroke-opacity:1" transform="translate(412.575 99.425)" fill="none" stroke="#feaf39" stroke-width="15" stroke-linecap="round" stroke-linejoin="round" stroke-miterlimit="10" stroke-dasharray="none" stroke-opacity="" data-original="#000000" opacity="1" class=""></path> <path d="M0 0c0-22.316-18.09-40.406-40.406-40.406S-80.813-22.316-80.813 0s18.091 40.407 40.407 40.407C-18.09 40.407 0 22.316 0 0Z" style="stroke-width:15;stroke-linecap:round;stroke-linejoin:round;stroke-miterlimit:10;stroke-dasharray:none;stroke-opacity:1" transform="translate(110.536 70.13)" fill="none" stroke="#feaf39" stroke-width="15" stroke-linecap="round" stroke-linejoin="round" stroke-miterlimit="10" stroke-dasharray="none" stroke-opacity="" data-original="#000000" opacity="1" class=""></path> <path d="m0 0 48.488 48.488" style="stroke-width:15;stroke-linecap:round;stroke-linejoin:round;stroke-miterlimit:10;stroke-dasharray:none;stroke-opacity:1" transform="translate(99.425 99.425)" fill="none" stroke="#feaf39" stroke-width="15" stroke-linecap="round" stroke-linejoin="round" stroke-miterlimit="10" stroke-dasharray="none" stroke-opacity="" data-original="#000000" opacity="1" class=""></path> </g> </g> </svg> 