<?xml version="1.0" encoding="UTF-8"?> <svg xmlns="http://www.w3.org/2000/svg" width="314" height="222" viewBox="0 0 314 222" fill="none"> <path fill-rule="evenodd" clip-rule="evenodd" d="M67.3366 0.482431C60.0961 2.67893 54.8525 10.7394 55.6447 18.4572C56.2594 24.4466 59.7523 29.5917 65.2237 32.5674L67.9205 34.0335H184.893H301.865L304.561 32.5674C310.758 29.1977 313.941 23.9617 313.976 17.08C314.011 10.1433 310.792 4.66318 304.719 1.32468C302.661 0.19354 296.027 0.120303 185.903 0.0111226C121.755 -0.0519447 68.3997 0.159635 67.3366 0.482431ZM13.4199 94.0059C9.44463 94.7926 5.50834 97.6224 2.83934 101.613C-0.946106 107.273 -0.946106 114.521 2.83934 120.181C5.6561 124.392 9.50107 127.007 14.1228 127.858C16.5989 128.314 40.112 128.486 144.133 128.367C286.366 128.207 301.413 128.088 303.55 127.106C307.039 125.503 310.085 122.683 312.159 119.133C313.722 116.459 314 115.216 314 110.897C314 106.579 313.722 105.336 312.159 102.661C310.085 99.1117 307.039 96.2913 303.55 94.6881C301.411 93.7062 286.413 93.595 143.43 93.5048C54.1322 93.4484 15.1367 93.6661 13.4199 94.0059ZM136.273 188.358C121.32 193.732 120.521 214.002 135.003 220.596C138 221.961 139.006 221.977 218.988 221.992C309.163 222.009 303.709 222.291 308.776 217.344C312.673 213.541 314.005 210.304 313.974 204.714C313.954 201.195 313.569 199.244 312.485 197.168C310.454 193.28 305.529 189.099 301.898 188.179C297.264 187.005 139.562 187.175 136.273 188.358Z" fill="#FEAF39"></path> </svg> 