<?xml version="1.0" encoding="UTF-8"?> <svg xmlns="http://www.w3.org/2000/svg" width="512" height="512" viewBox="0 0 512 512" fill="none"> <path d="M502 0H10.001C4.47753 0 0.000976562 4.47655 0.000976562 9.99998V421.999C0.000976562 427.523 4.47753 431.999 10.001 431.999H98.6688C104.192 431.999 108.669 427.523 108.669 421.999C108.669 416.476 104.192 411.999 98.6688 411.999H20.0009V99.9998H492V411.999H465C464.609 411.999 464.227 412.027 463.844 412.07L411.184 359.409L435.102 335.492C437.606 332.988 438.598 329.351 437.715 325.925C436.832 322.495 434.199 319.792 430.797 318.812L409.254 312.609C426.926 299.757 438 278.996 438 255.999C438 217.402 406.598 186 368 186H144.001C105.403 186 74.0008 217.402 74.0008 255.999C74.0008 294.597 105.403 325.999 144.001 325.999H249.993L274.758 411.999H188.669C183.145 411.999 178.669 416.476 178.669 421.999C178.669 427.523 183.145 431.999 188.669 431.999H280.52L288.813 460.8C289.793 464.198 292.496 466.831 295.926 467.714C299.352 468.601 302.993 467.605 305.493 465.105L329.41 441.183L397.297 509.069C399.172 510.944 401.715 511.999 404.367 511.999C407.02 511.999 409.567 510.944 411.442 509.069L479.07 441.441C481.629 438.882 482.5 435.276 481.703 431.999H502C507.523 431.999 512 427.523 512 421.999V9.99998C512 4.47655 507.523 0 502 0ZM144.001 305.999C116.43 305.999 94.0008 283.57 94.0008 255.999C94.0008 228.429 116.43 206 144.001 206H368C395.571 206 418 228.429 418 255.999C418 278.863 402.684 298.636 380.664 304.374L248.766 266.39C245.27 265.382 241.501 266.355 238.93 268.929C236.356 271.503 235.383 275.269 236.391 278.769L244.235 305.999H144.001ZM404.371 487.855L336.485 419.968C334.61 418.093 332.067 417.038 329.414 417.038C326.762 417.038 324.215 418.093 322.34 419.968L303.34 438.972L260.618 290.613L408.973 333.339L389.973 352.339C386.067 356.245 386.067 362.577 389.973 366.484L457.859 434.37L404.371 487.855ZM20.0009 79.9998V20H492V79.9998H20.0009Z" fill="white"></path> <path d="M144.501 40C141.872 40 139.29 41.0703 137.431 42.9297C135.571 44.7891 134.501 47.3711 134.501 50C134.501 52.6289 135.571 55.2109 137.431 57.0703C139.29 58.9297 141.872 60 144.501 60C147.13 60 149.712 58.9297 151.571 57.0703C153.431 55.2109 154.501 52.6289 154.501 50C154.501 47.3711 153.431 44.7891 151.571 42.9297C149.712 41.0703 147.13 40 144.501 40Z" fill="white"></path> <path d="M104.501 40C101.872 40 99.29 41.0703 97.4307 42.9297C95.5713 44.7891 94.501 47.3711 94.501 50C94.501 52.6289 95.5713 55.2109 97.4307 57.0703C99.29 58.9297 101.872 60 104.501 60C107.13 60 109.712 58.9297 111.571 57.0703C113.431 55.2109 114.501 52.6289 114.501 50C114.501 47.3711 113.431 44.7891 111.571 42.9297C109.712 41.0703 107.13 40 104.501 40Z" fill="white"></path> <path d="M64.501 40C61.8721 40 59.29 41.0703 57.4307 42.9297C55.5713 44.7891 54.501 47.3711 54.501 50C54.501 52.6289 55.5713 55.2109 57.4307 57.0703C59.29 58.9297 61.8721 60 64.501 60C67.1299 60 69.7119 58.9297 71.5713 57.0703C73.4307 55.2109 74.501 52.6289 74.501 50C74.501 47.3711 73.4307 44.7891 71.5713 42.9297C69.7119 41.0703 67.1299 40 64.501 40Z" fill="white"></path> <path d="M448.001 40H200.001C194.478 40 190.001 44.4766 190.001 50C190.001 55.5234 194.478 60 200.001 60H448.001C453.524 60 458.001 55.5234 458.001 50C458.001 44.4766 453.524 40 448.001 40Z" fill="white"></path> <path d="M143.673 411.999C141.032 411.999 138.462 413.069 136.591 414.929C134.731 416.788 133.673 419.358 133.673 421.999C133.673 424.628 134.731 427.21 136.591 429.069C138.462 430.929 141.032 431.999 143.673 431.999C146.302 431.999 148.88 430.929 150.743 429.069C152.603 427.21 153.673 424.628 153.673 421.999C153.673 419.37 152.603 416.788 150.743 414.929C148.872 413.069 146.302 411.999 143.673 411.999Z" fill="white"></path> </svg> 