<?xml version="1.0" encoding="UTF-8"?> <svg xmlns="http://www.w3.org/2000/svg" xmlns:xlink="http://www.w3.org/1999/xlink" width="512" height="512" x="0" y="0" viewBox="0 0 512 512" style="enable-background:new 0 0 512 512" xml:space="preserve" class=""> <g> <path d="M503.984 404.77h-60.947V248.938h60.947a8.016 8.016 0 1 0 0-16.031h-62.968a14.025 14.025 0 0 0-14.01 14.009v6.62h-36.952a9.125 9.125 0 0 1-4.7-1.3l-98.025-58.814a37.952 37.952 0 0 0-19.529-5.412h-64.458a37.464 37.464 0 0 0-29.8 14.885l-37.586 49.426H84.994v-5.405a14.025 14.025 0 0 0-14.01-14.009H8.016a8.016 8.016 0 1 0 0 16.031h60.947V404.77H8.016a8.016 8.016 0 1 0 0 16.031h62.968a14.026 14.026 0 0 0 14.01-14.01v-20.735h12.352a27.053 27.053 0 0 0 11.848 26.676 8.015 8.015 0 0 0 8.819-13.387 10.987 10.987 0 0 1-3.131-15.218l7.222-10.963a10.986 10.986 0 0 1 18.349 12.086l-7.223 10.964a27.046 27.046 0 0 0 7.7 37.423 8.015 8.015 0 0 0 8.819-13.387 11 11 0 0 1-3.131-15.217l7.222-10.963a10.986 10.986 0 0 1 18.352 12.081l-7.222 10.964a27.048 27.048 0 0 0 7.7 37.424 8.016 8.016 0 1 0 8.819-13.388 11 11 0 0 1-3.13-15.217l7.222-10.964a10.986 10.986 0 0 1 18.352 12.082l-7.233 10.974a27.048 27.048 0 0 0 7.7 37.424 8.016 8.016 0 0 0 8.819-13.388 11 11 0 0 1-3.13-15.217l7.222-10.964a10.986 10.986 0 0 1 18.348 12.088 7.951 7.951 0 0 0-1.255 3.436c-.029.057-.063.11-.09.168a8.016 8.016 0 0 0 3.842 10.665 645.716 645.716 0 0 0 11.148 5.115 28.749 28.749 0 0 0 43.339-22.364 28.472 28.472 0 0 0 10.608 2.067 28.99 28.99 0 0 0 6.663-.779 28.773 28.773 0 0 0 22.18-27.177 28.428 28.428 0 0 0 8.686 1.374 29.092 29.092 0 0 0 6.662-.779 28.782 28.782 0 0 0 22.193-27.571 28.42 28.42 0 0 0 6.007.646 29.043 29.043 0 0 0 6.662-.779 28.815 28.815 0 0 0 8.567-52.542l-149.641-93.07h-.007l-.028-.017c-.046-.029-.094-.051-.141-.078a23.4 23.4 0 0 0-30.828 5.586l-30.132 38.63a20.924 20.924 0 1 1-32.86-25.911l39.122-52.066a21.349 21.349 0 0 1 16.986-8.483H267.8a21.918 21.918 0 0 1 11.276 3.123l98.026 58.815a25.183 25.183 0 0 0 12.949 3.587h36.952v137.226a14.026 14.026 0 0 0 14.01 14.01h62.968a8.016 8.016 0 1 0 0-16.031zm-340.376-90.138a36.85 36.85 0 0 0 29.129-14.272l30.127-38.641a7.416 7.416 0 0 1 9.824-1.774l.022.012.013.009 149.7 93.1a12.784 12.784 0 0 1-13.45 21.745l-12.988-7.681-35.032-22.509a8.01 8.01 0 0 0-9.052 13.21c.116.091.241.184.387.277l35.157 22.59.116.074a12.783 12.783 0 0 1-13.45 21.742l-15.7-8.832-24.859-16.211a8.016 8.016 0 0 0-8.762 13.429l25.08 16.355.161.1A12.784 12.784 0 1 1 296.58 429.1l-17.4-10.761-12.277-8.425a8.015 8.015 0 0 0-9.684 12.75c.154.132.334.267.528.4.029.021.055.044.085.065l12.434 8.533.18.111.314.206a12.575 12.575 0 0 1 4.074 17.289 12.794 12.794 0 0 1-17.6 4.146l-.458-.283-.491-.219c-1.448-.646-2.9-1.306-4.346-1.966a27.013 27.013 0 0 0-30.78-35.512 26.983 26.983 0 0 0-31.736-20.906A26.984 26.984 0 0 0 157.7 373.62a27.014 27.014 0 0 0-48.992-9.28l-3.742 5.68H84.994V268.353H127.8a37.046 37.046 0 0 0 35.807 46.279zM256.384 87.7a8.015 8.015 0 0 0 8.015-8.016V43.243a8.016 8.016 0 1 0-16.031 0v36.44a8.016 8.016 0 0 0 8.016 8.017zM313.778 112.565a7.993 7.993 0 0 0 5.668-2.347l25.767-25.767a8.016 8.016 0 0 0-11.336-11.337L308.11 98.881a8.016 8.016 0 0 0 5.668 13.684zM191.55 110.218a8.016 8.016 0 1 0 11.336-11.337l-25.768-25.767a8.016 8.016 0 1 0-11.335 11.337zM138.333 157.565h36.44a8.016 8.016 0 1 0 0-16.031h-36.44a8.016 8.016 0 1 0 0 16.031zM331.75 149.549a8.017 8.017 0 0 0 8.016 8.016h36.44a8.016 8.016 0 1 0 0-16.031h-36.44a8.017 8.017 0 0 0-8.016 8.015z" fill="#000000" opacity="1" data-original="#000000" class=""></path> </g> </svg> 