<?xml version="1.0" encoding="UTF-8"?> <svg xmlns="http://www.w3.org/2000/svg" width="512" height="458" viewBox="0 0 512 458" fill="none"> <path d="M235.22 421.107C152.2 410.778 89.5951 339.797 89.5951 255.999C89.5951 229.158 96.1361 202.545 108.496 178.931C123.72 162.866 129.616 139.846 123.88 118.435C118.001 96.4949 100.699 79.1939 78.7281 73.2829C75.2721 72.3519 71.5811 73.342 69.0521 75.875C52.9811 91.979 46.6481 115.613 52.5271 137.556C57.3601 155.591 69.9141 170.485 86.4321 178.501C82.6691 186.74 79.5301 195.261 77.0081 203.968C75.1651 201.48 73.1361 199.109 70.9141 196.887C54.8521 180.826 31.2191 174.492 9.23506 180.359C5.77606 181.282 3.07406 183.984 2.15106 187.443C-3.71494 209.426 2.61907 233.06 18.6791 249.122C30.7801 261.224 47.1771 267.802 63.9311 267.802C65.9371 267.802 67.9491 267.705 69.9591 267.515C70.6101 278.104 72.1441 288.479 74.5081 298.554C71.6651 297.32 68.7191 296.279 65.6811 295.465C43.7431 289.584 20.1071 295.917 4.00106 311.99C1.46806 314.518 0.479064 318.209 1.40906 321.666C7.32006 343.639 24.6221 360.939 46.5621 366.817C51.9801 368.269 57.4981 368.976 62.9831 368.976C76.0401 368.975 88.8861 364.95 99.6681 357.435C105.737 366.776 112.623 375.55 120.232 383.653C98.8281 384.812 79.1721 396.778 68.3501 415.478C66.5571 418.577 66.5571 422.397 68.3501 425.496C79.7461 445.189 100.936 457.423 123.651 457.423C146.278 457.423 167.389 445.281 178.817 425.721C195.562 433.348 213.673 438.584 232.75 440.957C233.169 441.009 233.585 441.034 233.997 441.034C238.969 441.034 243.278 437.329 243.908 432.267C244.591 426.785 240.7 421.79 235.22 421.107ZM51.7391 347.497C38.6291 343.984 27.9271 334.526 22.6921 322.182C33.3971 314.109 47.3891 311.266 60.5051 314.782C73.6151 318.295 84.3171 327.753 89.5521 340.097C78.8461 348.17 64.8481 351.01 51.7391 347.497ZM71.8451 132.379C68.3321 119.268 71.1721 105.272 79.2451 94.566C91.5901 99.801 101.049 110.503 104.561 123.612C108.074 136.723 105.233 150.719 97.1601 161.425C84.8161 156.189 75.3581 145.489 71.8451 132.379ZM32.8221 234.978C23.2241 225.381 18.6861 211.84 20.3241 198.531C33.6351 196.895 47.1741 201.431 56.7711 211.029C66.3691 220.626 70.9071 234.168 69.2691 247.476C55.9571 249.11 42.4201 244.575 32.8221 234.978ZM123.652 437.421C110.079 437.421 97.2951 431.055 89.0431 420.485C97.2951 409.917 110.079 403.55 123.652 403.55C137.225 403.55 150.009 409.916 158.261 420.485C150.01 431.055 137.225 437.421 123.652 437.421Z" fill="#FEAF39"></path> <path d="M446.289 295.463C443.25 296.277 440.305 297.318 437.462 298.552C439.826 288.476 441.36 278.102 442.011 267.513C444.021 267.703 446.032 267.8 448.039 267.8C464.791 267.8 481.191 261.221 493.291 249.12C509.352 233.058 515.686 209.425 509.819 187.441C508.896 183.982 506.194 181.28 502.735 180.357C480.754 174.494 457.118 180.825 441.056 196.885C438.834 199.107 436.806 201.479 434.962 203.966C432.44 195.259 429.301 186.739 425.538 178.499C442.056 170.483 454.61 155.59 459.443 137.553C465.322 115.612 458.989 91.9779 442.918 75.8729C440.39 73.3399 436.701 72.3479 433.242 73.2809C411.27 79.1919 393.969 96.4929 388.09 118.433C382.354 139.843 388.25 162.864 403.474 178.929C415.835 202.543 422.375 229.156 422.375 255.997C422.375 339.795 359.77 410.776 276.75 421.105C271.27 421.788 267.379 426.783 268.061 432.263C268.691 437.325 272.999 441.03 277.972 441.03C278.384 441.03 278.8 441.005 279.219 440.953C298.296 438.579 316.407 433.344 333.152 425.717C344.579 445.277 365.69 457.419 388.318 457.419C411.033 457.419 432.222 445.186 443.619 425.492C445.412 422.393 445.412 418.573 443.619 415.474C432.797 396.774 413.141 384.808 391.737 383.649C399.346 375.546 406.232 366.773 412.3 357.432C423.082 364.947 435.928 368.972 448.986 368.972C454.47 368.972 459.99 368.264 465.407 366.813C487.347 360.935 504.649 343.634 510.56 321.662C511.491 318.205 510.501 314.515 507.968 311.986C491.864 295.916 468.23 289.581 446.289 295.463ZM455.199 211.028C464.797 201.429 478.332 196.892 491.646 198.53C493.284 211.84 488.746 225.381 479.148 234.977C469.551 244.575 456.009 249.112 442.701 247.475C441.063 234.167 445.601 220.625 455.199 211.028ZM407.409 123.611C410.922 110.502 420.381 99.7999 432.725 94.5649C440.798 105.271 443.638 119.267 440.125 132.378C436.611 145.489 427.153 156.19 414.81 161.425C406.737 150.719 403.896 136.723 407.409 123.611ZM422.928 420.485C414.676 431.054 401.892 437.421 388.319 437.421C374.746 437.421 361.962 431.055 353.71 420.485C361.962 409.917 374.746 403.55 388.319 403.55C401.892 403.55 414.676 409.917 422.928 420.485ZM460.231 347.497C447.12 351.01 433.125 348.17 422.418 340.097C427.653 327.752 438.355 318.294 451.465 314.782C464.58 311.27 478.573 314.11 489.278 322.182C484.043 334.526 473.342 343.984 460.231 347.497Z" fill="#FEAF39"></path> <path d="M320.272 352.022C327.417 346.831 330.258 338.053 327.511 329.659L311.804 281.676L352.809 252.021C359.957 246.851 362.821 238.087 360.104 229.695C357.387 221.301 349.931 215.879 341.11 215.879H290.483L274.982 167.925C272.267 159.527 264.811 154.1 255.985 154.1C247.159 154.1 239.703 159.527 236.988 167.924L221.487 215.879H170.86C162.039 215.879 154.583 221.302 151.866 229.695C149.149 238.088 152.012 246.851 159.161 252.02L200.166 281.676L184.459 329.66C181.712 338.054 184.554 346.831 191.698 352.022C195.264 354.613 199.349 355.908 203.433 355.908C207.532 355.908 211.63 354.604 215.203 351.996L255.985 322.229L296.767 351.996C303.9 357.204 313.126 357.213 320.272 352.022ZM255.985 299.85C253.916 299.85 251.845 300.491 250.089 301.773L203.5 335.777L221.443 280.962C222.796 276.829 221.323 272.296 217.799 269.748L170.968 235.879H228.763C233.101 235.879 236.944 233.082 238.279 228.955L255.984 174.181L273.689 228.955C275.024 233.082 278.867 235.879 283.205 235.879H341L294.169 269.748C290.646 272.296 289.173 276.829 290.525 280.962L308.468 335.777L261.879 301.773C260.125 300.49 258.055 299.85 255.985 299.85Z" fill="#FEAF39"></path> <path d="M255.985 20C258.615 20 261.195 18.93 263.054 17.069C264.914 15.21 265.985 12.63 265.985 10C265.985 7.37 264.915 4.79 263.054 2.93C261.195 1.07 258.615 0 255.985 0C253.355 0 250.775 1.069 248.915 2.93C247.055 4.791 245.985 7.37 245.985 10C245.985 12.63 247.054 15.2 248.915 17.069C250.775 18.93 253.355 20 255.985 20Z" fill="#FEAF39"></path> <path d="M177.63 111.629C179.327 115.267 182.934 117.404 186.7 117.404C188.114 117.404 189.553 117.102 190.92 116.466C195.925 114.132 198.091 108.182 195.757 103.176L169.655 47.1998C167.321 42.1968 161.374 40.0308 156.365 42.3628C151.36 44.6968 149.194 50.6468 151.528 55.6528L177.63 111.629Z" fill="#FEAF39"></path> <path d="M255.972 114.499H255.985C261.503 114.499 265.978 110.03 265.985 104.512L266.048 55.075C266.055 49.553 261.584 45.069 256.061 45.062C256.057 45.062 256.052 45.062 256.048 45.062C250.53 45.062 246.055 49.531 246.048 55.049L245.985 104.486C245.978 110.009 250.449 114.492 255.972 114.499Z" fill="#FEAF39"></path> <path d="M321.051 116.466C322.418 117.103 323.856 117.404 325.271 117.404C329.038 117.404 332.644 115.266 334.341 111.629L360.443 55.653C362.777 50.647 360.611 44.697 355.606 42.363C350.599 40.032 344.651 42.196 342.316 47.2L316.214 103.176C313.88 108.182 316.046 114.132 321.051 116.466Z" fill="#FEAF39"></path> </svg> 