<?xml version="1.0" encoding="UTF-8"?> <svg xmlns="http://www.w3.org/2000/svg" width="560" height="560" viewBox="0 0 560 560" fill="none"> <path fill-rule="evenodd" clip-rule="evenodd" d="M307.466 0.151005C304.11 0.701413 300.904 2.39558 298.558 4.85782C297.202 6.28026 296.468 7.36346 295.576 9.25336C294.46 11.618 294.199 12.8685 294.199 15.8493C294.199 17.9992 294.252 18.5959 294.541 19.6614C295.363 22.6895 296.789 25.1477 298.924 27.2155C301.828 30.0283 303.995 31.0015 309.558 31.992C356.099 40.2782 399.121 60.4549 435.656 91.13C445.544 99.4315 455.625 109.234 464.206 118.889C497.073 155.872 518.673 200.006 527.675 248.571C528.195 251.375 528.759 254.086 528.929 254.596C530.63 259.69 534.887 263.627 540.133 264.958C543.965 265.93 548.224 265.415 551.726 263.556C555.635 261.482 558.436 257.902 559.585 253.515C559.92 252.233 559.991 251.615 559.999 249.885C560.008 248.028 559.929 247.368 559.277 243.86C552.666 208.321 540.7 176.06 522.837 145.611C505.271 115.671 481.865 88.1918 454.651 65.5616C426.591 42.2275 394.998 24.3957 360.61 12.4824C348.547 8.30331 334.869 4.57775 322.147 2.00645C312.666 0.0899863 309.939 -0.254501 307.466 0.151005ZM102.8 32.4726C91.5762 33.5926 82.3084 37.2855 72.8412 44.4104C69.197 47.1532 68.0328 48.3005 30.8152 85.8281C23.1397 93.5675 20.566 96.3882 17.6721 100.232C7.83212 113.301 2.09141 128.23 0.548263 144.762C0.00545738 150.577 -0.154573 158.878 0.159618 164.921C1.22438 185.4 5.62537 205.497 14.3083 229.531C33.4702 282.573 62.4998 331.492 105.498 383.199C121.219 402.104 139.943 421.735 158.35 438.609C201.069 477.772 250.06 510.283 301.525 533.622C335.299 548.937 364.346 557.214 392.465 559.534C407.218 560.752 419.943 559.594 432.057 555.931C443.783 552.385 454.946 546.148 464.241 537.946C466.577 535.885 470.916 531.531 472.435 529.723C476.788 524.542 483.587 517.572 494.612 506.986C497.713 504.009 502.266 499.529 504.73 497.03C510.922 490.751 513.352 487.877 516.474 483.147C521.642 475.318 524.635 467.322 525.753 458.354C526.075 455.774 526.118 449.943 525.832 447.463C524.545 436.267 520.162 426.301 512.451 417.031C510.567 414.767 499.392 403.476 467.631 371.753C436.532 340.689 437.063 341.197 432.313 337.971C424.626 332.75 416.376 329.689 407.668 328.827C405.608 328.623 400.107 328.623 398.047 328.827C386.746 329.946 376.331 334.617 366.383 343.029C365.306 343.939 355.852 353.247 344.728 364.347L324.985 384.049L323.566 383.298C322.786 382.884 318.984 380.93 315.119 378.955C306.188 374.392 304.736 373.548 297.355 368.627C270.878 350.973 245.832 328.923 221.964 302.253C203.32 281.421 190.003 263.19 180.251 245.153C178.695 242.273 176.045 236.959 175.087 234.795L174.732 233.994L176.534 232.336C181.574 227.699 189.289 220.106 201.161 208.098C214.139 194.971 216.29 192.685 218.912 189.231C234.918 168.141 234.689 143.137 218.297 122.143C215.774 118.912 213.165 116.222 193.936 97.0279C182.7 85.8127 170.728 73.7518 167.331 70.2258C158.846 61.4193 147.966 50.7751 143.108 46.5269C135.758 40.1011 126.943 35.549 117.983 33.553C114.283 32.7287 112.206 32.5083 107.666 32.4581C105.33 32.4321 103.14 32.4388 102.8 32.4726ZM110.946 64.6782C114.484 65.3844 118.182 67.2277 121.568 69.9734C124.164 72.0774 134.498 82.1851 143.071 91.0032C145.879 93.8919 158.027 106.127 170.068 118.191C182.108 130.256 192.427 140.718 193 141.44C196.11 145.365 198.045 149.2 198.744 152.829C199.088 154.614 199.083 157.775 198.733 159.437C197.922 163.283 195.875 167.248 192.71 171.1C191.196 172.943 162.095 202.044 157.402 206.408C155.489 208.187 152.778 210.69 151.378 211.971C146.25 216.66 143.978 219.846 142.418 224.533C140.909 229.066 140.991 233.932 142.674 239.743C144.227 245.109 150.888 258.74 156.837 268.731C167.217 286.16 179.448 302.499 196.787 322.099C208.057 334.838 221.185 348.138 233.404 359.193C248.734 373.063 265.331 385.874 282.371 396.99C289.088 401.372 291.973 403.02 300.058 407.094C306.913 410.548 309.515 411.927 312.438 413.653C317.566 416.682 322.225 417.974 327.245 417.76C332.468 417.537 337.121 415.692 341.688 412.033C342.325 411.522 352.786 401.188 364.935 389.067C388.437 365.621 388.269 365.779 391.945 363.58C395.86 361.239 400.369 360.105 404.21 360.495C408.085 360.89 411.74 362.394 415.323 365.069C416.633 366.047 484.876 433.942 487.091 436.471C491.465 441.464 493.669 445.995 494.181 451.042C494.702 456.188 492.948 461.573 489.006 466.927C486.783 469.946 482.48 474.453 473.97 482.677C461.495 494.731 456.348 499.957 451.143 505.854C447.737 509.712 446.049 511.483 444.01 513.334C439.926 517.043 436.034 519.746 431.434 522.068C423.355 526.146 415.42 527.974 404.788 528.206C393.42 528.455 377.648 526.19 362.023 522.066C339.21 516.044 312.9 504.996 283.761 489.204C227.559 458.743 177.187 417.851 134.628 368.138C123.391 355.012 111.242 339.434 101.077 325.116C78.3841 293.153 61.2058 261.847 48.3512 229.03C38.3772 203.567 33.5876 184.733 32.2641 165.771C31.877 160.225 32.0699 150.845 32.6739 145.843C34.0493 134.453 38.3196 124.782 45.7698 116.183C47.6922 113.965 89.7773 71.9507 91.3067 70.7235C97.9623 65.3827 104.458 63.3832 110.946 64.6782ZM302.469 101.824C298.714 102.638 295.406 104.634 293.133 107.456C291.882 109.011 290.558 111.607 290.102 113.403C287.995 121.7 292.498 130.062 300.444 132.61C300.996 132.788 302.63 133.148 304.074 133.412C321.742 136.639 337.277 142.282 352.366 150.953C372.646 162.607 390.482 179.289 403.552 198.829C414.715 215.518 422.062 233.388 426.119 253.72C426.668 256.471 427.259 259.143 427.431 259.656C428.982 264.258 432.903 268.038 437.694 269.549C439.523 270.126 441.253 270.334 443.319 270.228C451.301 269.816 457.509 263.977 458.468 255.979C458.69 254.125 458.593 252.796 457.993 249.498C450.415 207.862 428.44 170.129 395.596 142.358C370.991 121.554 341.754 107.801 309.884 102.042C307.025 101.526 304.224 101.443 302.469 101.824Z" fill="#DDB774"></path> </svg> 