<?xml version="1.0" encoding="UTF-8"?> <svg xmlns="http://www.w3.org/2000/svg" xmlns:xlink="http://www.w3.org/1999/xlink" width="512" height="512" x="0" y="0" viewBox="0 0 512 512" style="enable-background:new 0 0 512 512" xml:space="preserve"> <g> <path d="M13.032 273.574c13.078 23.465 36.258 42.828 68.902 57.559 11.522 5.189 23.394 9.542 35.132 13.611a852.688 852.688 0 0 1-64.476 22.315c-8.246 2.488-14.781 8.496-17.922 16.461-10.848 27.254-13.074 57.727-6.273 85.754 2.422 10.297 6.52 18.984 12.203 25.855 10.648 12.746 23.375 16.879 35.582 16.875 16.723 0 32.465-7.75 40.512-11.715 36.625-18.133 70.766-41.656 103.781-64.406 11.572-7.974 23.278-16.002 35.138-23.863 11.768 7.803 23.438 15.8 35.1 23.835 33.031 22.754 67.188 46.285 103.855 64.441 8.035 3.957 23.758 11.707 40.477 11.703 12.215 0 24.961-4.137 35.621-16.902 5.664-6.848 9.766-15.539 12.168-25.77 6.812-28.086 4.59-58.559-6.25-85.785-3.152-7.988-9.691-13.996-17.93-16.484-22.299-6.727-43.908-14.207-64.507-22.309 11.759-4.068 23.649-8.42 35.164-13.617 32.641-14.727 55.82-34.094 68.91-57.582 11.027-19.934 12.598-42.994 4.468-59.807.209-3.997-.223-8.122-1.675-12.373-3.866-11.329-12.866-18.125-19.867-21.905a48.402 48.402 0 0 0-.461-2.916 97.855 97.855 0 0 0-1.504-5.559c-1.68-5.438-6.227-9.453-11.859-10.477-.102-.019-.201.003-.302-.013 5.794-51.632-4.723-92.66-31.686-121.776C411.235 12.685 380.817-.967 349.821.079c-34.914 1.23-59.023 20.008-70.359 31.16-9.59 9.664-17.273 21.41-22.797 34.672-5.391-12.707-13.305-24.375-23.594-34.738C221.805 20.09 197.696 1.312 162.79.082c-31.055-1.09-61.438 12.605-85.52 38.641-27.078 29.242-37.575 70.243-31.637 121.717-.57.041-1.131-.029-1.703.076-5.637 1.02-10.184 5.035-11.895 10.547a96.38 96.38 0 0 0-1.551 5.816s-.186 1.005-.394 2.595c-6.999 3.781-15.989 10.576-19.852 21.893-1.45 4.245-1.883 8.365-1.677 12.356-8.14 16.812-6.568 39.88 4.471 59.851zm448.676 115.867c9.633 24.191 11.613 51.223 5.562 76.168-1.848 7.867-4.855 14.359-8.91 19.262-12.035 14.414-29 14.727-56.707 1.082-35.621-17.641-69.297-40.84-101.867-63.273a2910.53 2910.53 0 0 0-29.589-20.145c24.934-15.9 50.712-30.537 77.929-41.433 7.534-3.03 15.292-5.788 23.036-8.468 26.054 10.984 53.886 21.001 82.87 29.745a11.883 11.883 0 0 1 7.676 7.062zm15.793-154.132c-8.945 15.281-22.641 28.547-39.613 38.367a8 8 0 0 0 4.016 14.926 8.006 8.006 0 0 0 4-1.074c19.363-11.211 35.062-26.469 45.406-44.137l.23-.398c-.94 8.179-3.696 16.26-7.309 22.792-11.371 20.402-32.062 37.48-61.5 50.762-14.59 6.582-30.172 11.871-45.242 16.984-11.633 3.949-23.656 8.027-35.32 12.723-47.32 18.945-89.746 48.18-130.773 76.453-32.551 22.43-66.207 45.621-101.789 63.238-27.73 13.652-44.695 13.328-56.703-1.043-4.074-4.93-7.082-11.418-8.949-19.348-6.035-24.887-4.051-51.918 5.59-76.141 1.344-3.406 4.137-5.973 7.668-7.035 56.137-16.941 108.711-38.77 156.258-64.883 31.414-17.23 63.895-35.047 91.059-59.902 28.098-25.602 46.707-56.734 52.75-88.129.141-.098.523-.328.918-.234 2.473.578 4.949 1.23 7.031 1.926 4.133 1.441 7.262 3.723 8.832 6.461 1.48 2.547 1.902 6.199 2.234 10.031 1.309 15.199.516 30.355-2.363 45.051a8.004 8.004 0 0 0 2.926 7.844 7.987 7.987 0 0 0 8.312.941c30.109-14.074 56.859-35.969 78.996-64.844.336 1.164.652 2.336.875 3.262.039.203.406 2.242.602 5.316.191 2.598.309 6.555-.195 10.621-1.535 11.715-13.727 31.113-37.508 48.043-3.598 2.559-4.438 7.555-1.875 11.156a7.992 7.992 0 0 0 11.156 1.875c23.869-16.991 40.876-39.54 43.845-57.901 2.037 2.062 3.792 4.551 4.808 7.526 2.892 8.474-1.647 17.271-8.373 28.771zM25.38 206.535c1.013-2.967 2.764-5.45 4.794-7.508 2.945 18.311 19.963 40.883 43.847 57.887a8 8 0 0 0 9.281-13.031c-23.777-16.93-35.973-36.328-37.5-47.977-.512-4.16-.391-8.102-.195-10.762.184-2.906.531-4.906.52-4.906v.008a78 78 0 0 1 .859-3.289c22.57 28.84 49.176 50.543 79.09 64.527a7.958 7.958 0 0 0 8.312-.941 8.003 8.003 0 0 0 2.926-7.844c-2.879-14.695-3.672-29.852-2.363-45.055.332-3.824.75-7.469 2.254-10.066 1.547-2.699 4.676-4.98 8.707-6.387 2.184-.73 4.66-1.383 6.953-1.922.562-.125.953.102 1.449.66 5.695 30.93 24.305 62.062 52.383 87.645a247.644 247.644 0 0 0 14.027 11.91 7.97 7.97 0 0 0 4.949 1.719 7.979 7.979 0 0 0 6.285-3.047c2.734-3.469 2.141-8.5-1.328-11.234a233.378 233.378 0 0 1-13.141-11.156c-25.527-23.258-42.375-51.223-47.449-78.785-.852-4.453-3.41-8.301-7.211-10.832-3.852-2.566-8.688-3.492-13.434-2.496-2.965.695-5.926 1.488-8.648 2.395-7.773 2.711-13.965 7.531-17.406 13.539-3.137 5.414-3.859 11.215-4.328 16.688a179.43 179.43 0 0 0 .242 33.641c-20.635-11.88-39.387-28.109-56.002-48.332-.366-1.962-.704-3.94-.994-5.922-7.215-50.055 1.785-89.105 26.758-116.066 20.863-22.566 46.84-34.527 73.203-33.52 29.5 1.039 50.023 17.055 59.562 26.441 8.781 8.844 15.562 18.82 20.117 29.555 2.504 6.113 8.348 10.062 14.898 10.062h.031c6.441-.016 12.172-3.914 14.586-9.883 4.766-11.559 11.293-21.562 19.336-29.668 9.609-9.453 30.133-25.469 59.641-26.508 26.297-1 52.32 10.961 73.199 33.52 37.402 40.391 29.457 97.27 26.859 115.891l-.336 2.164c-.083.556-.19 1.107-.281 1.663-17.062 21.284-36.442 38.282-57.844 50.603a179.47 179.47 0 0 0 .242-33.645c-.473-5.48-1.199-11.285-4.312-16.648-3.465-6.047-9.656-10.867-17.523-13.609-2.617-.871-5.586-1.664-8.73-2.398a17.5 17.5 0 0 0-13.254 2.535c-3.801 2.531-6.359 6.379-7.219 10.883-5.062 27.512-21.91 55.473-47.453 78.746-25.754 23.57-57.379 40.914-87.969 57.691-21.08 11.577-43.225 22.248-66.206 32.056l-5.626-1.919c-15.121-5.137-30.754-10.449-45.43-17.059-29.441-13.285-50.133-30.363-61.488-50.738-3.622-6.552-6.383-14.65-7.321-22.841.082.139.166.289.247.427 10.34 17.664 26.039 32.922 45.402 44.133a7.996 7.996 0 0 0 4 1.074 8.002 8.002 0 0 0 6.934-3.992 8.006 8.006 0 0 0-2.918-10.934c-16.973-9.82-30.668-23.086-39.609-38.363-6.731-11.506-11.27-20.303-8.375-28.78z" fill="#feaf39" opacity="1" data-original="#000000"></path> <path d="M418.051 132.848a66.168 66.168 0 0 1-1.82 8.488c-1.211 4.246 1.254 8.676 5.504 9.887a8.05 8.05 0 0 0 2.195.309 8.01 8.01 0 0 0 7.691-5.812 82.873 82.873 0 0 0 2.258-10.543c.645-4.371-2.379-8.434-6.75-9.078-4.343-.642-8.433 2.374-9.078 6.749zM362.954 55.309c18.613 3.477 35.676 15.156 45.641 31.25 3.328 5.379 5.895 11.281 7.629 17.547a8.004 8.004 0 0 0 7.707 5.867c.707 0 1.426-.098 2.141-.293a8 8 0 0 0 5.574-9.848c-2.141-7.727-5.32-15.023-9.449-21.695-12.293-19.855-33.344-34.27-56.305-38.555a7.973 7.973 0 0 0-9.332 6.395 7.995 7.995 0 0 0 6.394 9.332z" fill="#feaf39" opacity="1" data-original="#000000"></path> </g> </svg> 