<?xml version="1.0" encoding="UTF-8"?> <svg xmlns="http://www.w3.org/2000/svg" xmlns:xlink="http://www.w3.org/1999/xlink" width="512" height="512" x="0" y="0" viewBox="0 0 60 60" style="enable-background:new 0 0 512 512" xml:space="preserve"> <g> <g fill="#000" fill-rule="nonzero"> <path d="M54.135 46.653a9.6 9.6 0 0 0 1.836-5.606A1 1 0 0 0 55.02 40a1.011 1.011 0 0 0-1.047.951 7.658 7.658 0 0 1-1.407 4.46C50.615 47.875 46.913 48 46.19 48a1 1 0 0 0 0 2c.884 0 5.421-.161 7.945-3.347zM34 34a1 1 0 0 0-2 0 4 4 0 0 0 4 4v1a1 1 0 0 0 2 0v-1a4 4 0 1 0 0-8v-4a2 2 0 0 1 2 2 1 1 0 0 0 2 0 4 4 0 0 0-4-4v-1a1 1 0 0 0-2 0v1a4 4 0 1 0 0 8v4a2 2 0 0 1-2-2zm0-6a2 2 0 0 1 2-2v4a2 2 0 0 1-2-2zm4 4a2 2 0 1 1 0 4z" fill="#feaf39" opacity="1" data-original="#000000"></path> <path d="M59.164 33.771C56.7 23.3 51.222 17.233 47.266 14.064c4.961.374 6.558 2.438 6.605 2.5a1 1 0 0 0 1.656-1.121c-.072-.108-1.461-2.092-5.5-3A4.587 4.587 0 0 0 51.7 9a5.135 5.135 0 0 0-3.824-4.658c.088-.722.133-1.45.134-2.177A2 2 0 0 0 45.229.327c-.505.229-.974.53-1.392.893a2.578 2.578 0 0 1-1.87.78 2.581 2.581 0 0 1-1.867-.78 4.6 4.6 0 0 0-6.242 0 2.572 2.572 0 0 1-1.872.78 2.571 2.571 0 0 1-1.866-.78 5.722 5.722 0 0 0-1.388-.892 2 2 0 0 0-2.777 1.838c0 2.488.492 6.926 3.607 9.906A27.588 27.588 0 0 0 25 15.543V8c0-2.28-3.225-4-7.5-4S10 5.72 10 8v10.075C6.493 18.425 4 20 4 22v25.435C1.584 48.084 0 49.4 0 51v5c0 2.28 3.225 4 7.5 4 3.823 0 6.8-1.377 7.387-3.3A11.233 11.233 0 0 0 20.5 58c4.275 0 7.5-1.72 7.5-4V41c0-2.28-3.225-4-7.5-4-.5 0-1.002.025-1.5.075V22c0-2.19-2.977-3.858-7-3.987v-7.244A11.388 11.388 0 0 0 17.5 12a11.388 11.388 0 0 0 5.5-1.231v6.82a32.302 32.302 0 0 0-1.974 2.43 1 1 0 0 0 1.612 1.181c.642-.87 1.33-1.704 2.062-2.5l.023-.026a26.288 26.288 0 0 1 6.637-5.319c.49.236 1.009.409 1.543.513l-2.578 2.406a1 1 0 0 0 1.366 1.462l4-3.731h.319v3a1 1 0 0 0 2 0V14h.319l4 3.731a1 1 0 0 0 1.366-1.462L41.1 13.853a6.3 6.3 0 0 0 1.533-.515c2.643 1.43 11.331 7.08 14.585 20.891 1.415 6.012.905 10.611-1.515 13.666C52.607 51.8 47.235 52 46.19 52H32a1 1 0 0 0 0 2h14.19c1.7 0 7.505-.351 11.08-4.863 2.818-3.559 3.456-8.729 1.894-15.366zM7.5 49c3.307 0 5.5 1.2 5.5 2s-2.193 2-5.5 2S2 51.8 2 51s2.193-2 5.5-2zm0 9C4.193 58 2 56.8 2 56v-2.231A11.388 11.388 0 0 0 7.5 55a11.388 11.388 0 0 0 5.5-1.231V56c0 .8-2.193 2-5.5 2zm13-2c-3.307 0-5.5-1.2-5.5-2V43.769A11.388 11.388 0 0 0 20.5 45a11.388 11.388 0 0 0 5.5-1.231V54c0 .8-2.193 2-5.5 2zM26 41c0 .8-2.193 2-5.5 2S15 41.8 15 41s2.193-2 5.5-2 5.5 1.2 5.5 2zm-13 0v7.231A11.388 11.388 0 0 0 7.5 47c-.5 0-1.002.025-1.5.075V24.769A11.388 11.388 0 0 0 11.5 26a11.388 11.388 0 0 0 5.5-1.231v12.666c-2.416.649-4 1.965-4 3.565zm4-19c0 .8-2.193 2-5.5 2S6 22.8 6 22s2.193-2 5.5-2 5.5 1.2 5.5 2zm.5-12C14.193 10 12 8.8 12 8s2.193-2 5.5-2S23 7.2 23 8s-2.193 2-5.5 2zm32.2-1c0 1.639-1.775 2.984-4 3a5.164 5.164 0 0 1-1.106-.127 11.848 11.848 0 0 0 2.921-5.53A3.064 3.064 0 0 1 49.7 9zM28.868 2.78A4.514 4.514 0 0 0 31.986 4a4.513 4.513 0 0 0 3.12-1.22 2.632 2.632 0 0 1 3.74 0A4.509 4.509 0 0 0 41.967 4a4.513 4.513 0 0 0 3.121-1.22c.277-.245.585-.452.917-.616 0 1.857-.345 6.448-3.567 8.965a4.289 4.289 0 0 1-2.51.859 21.629 21.629 0 0 0 2.041-4.721 1 1 0 1 0-1.928-.536A18.345 18.345 0 0 1 37.519 12h-1.028a18.518 18.518 0 0 1-2.523-5.269 1 1 0 0 0-1.927.537 21.644 21.644 0 0 0 2.043 4.725 4.3 4.3 0 0 1-2.562-.863c-3.222-2.516-3.567-7.107-3.567-8.958.331.159.639.363.913.608z" fill="#feaf39" opacity="1" data-original="#000000"></path> <path d="M54.135 46.653a9.6 9.6 0 0 0 1.836-5.606A1 1 0 0 0 55.02 40a1.013 1.013 0 0 0-1.047.951 7.658 7.658 0 0 1-1.407 4.46C50.615 47.875 46.913 48 46.19 48a1 1 0 0 0 0 2c.884 0 5.421-.161 7.945-3.347z" fill="#feaf39" opacity="1" data-original="#000000"></path> </g> </g> </svg> 