<?xml version="1.0" encoding="UTF-8"?> <svg xmlns="http://www.w3.org/2000/svg" width="472" height="588" viewBox="0 0 472 588" fill="none"> <path d="M0 0C0 0 0 413.759 0 451.903C0 524.669 39.869 539.884 99.983 539.884C177.386 539.884 211.763 559.88 235.962 587.874C259.872 559.88 294.064 539.884 371.941 539.884C431.605 539.884 471.925 524.668 471.925 451.903C471.925 204.678 471.925 0 471.925 0H0ZM388.887 308.768C393.084 310.198 394.926 321.894 391.498 327.03C387.336 324.911 376.035 320.198 373.221 313.986C373.221 310.107 378.834 306.159 381.053 306.159C381.323 303.064 381.707 296.575 381.053 293.115C377.446 287.991 369.383 277.026 360.164 272.244C355.34 275.801 348.996 285.988 327.391 293.844C327.391 284.024 337.01 265.884 337.01 254.478C343.295 253.32 357.465 253.687 363.51 253.953C372.772 264.592 386.014 282.555 388.887 290.506C389.965 294.708 389.506 305.3 388.887 308.768ZM168.209 118.215C168.209 134.907 176.08 139.086 192.471 143.72C193.934 150.395 196.471 162.984 196.471 178.615C196.471 188.015 193.926 196.36 193.926 199.493C170.944 199.493 171.182 186.046 147.321 186.046C116.56 186.046 129.435 165.175 110.764 165.175C120.323 143.554 149.5 123.854 168.209 118.215ZM108.484 207.706C132.179 207.706 142.797 218.593 147.508 227.838C145.365 229.375 141.863 233.8 140.566 236.546C138.471 234.076 133.572 231.701 124.48 231.701C118.265 231.701 112.483 237.33 112.483 247.698C112.483 258.238 122.851 269.675 122.851 281.468C122.851 299.259 109.22 319.396 84.488 322.013C91.506 315.157 96.486 300.117 96.486 287.689C96.486 269.396 75.1 266.037 75.1 242.051C75.1 224.989 85.081 207.706 108.484 207.706ZM112.483 471.649C91.102 471.649 71.769 459.042 71.769 433.817C71.769 409.128 94.109 407.03 94.109 390.159C94.109 378.649 91.875 369.98 82.939 363.647C100.828 366.55 108.484 383.337 108.484 395.666C108.484 407.285 100.484 413.276 100.484 423.66C100.484 431.288 109.997 437.357 116.224 437.357C124.441 437.357 145.504 433.722 150.277 430.517C149.173 435.178 154.289 457.176 160.474 463.651C152.029 468.716 127.681 471.649 112.483 471.649ZM402.43 405.068C404.84 412.253 393.346 422.702 384.203 425.447C383.59 428.406 380.228 434.098 376.637 435.367C375.463 431.439 373.022 430.044 370.967 429.832C370.723 436.109 367.867 441.769 362.338 445.443C361.344 440.423 358.051 436.901 354.483 434.759C354.483 442.584 351.805 450.011 345.092 455.134C344.67 451.42 339.317 443.974 335.826 442.291C337.045 468.955 324.424 498.252 308.31 507.641C309.003 503.851 307.289 497.515 304.31 495.644C292.664 504.329 238.63 506.952 228.464 503.642C247.501 499.795 253.167 479.508 244.462 471.649C250.2 465.782 254.378 451.301 254.378 440.325C254.378 415.511 239.21 409.019 223.044 409.019C208.425 409.019 199.542 420.254 199.542 429.89C199.542 441.679 207.442 445.542 212.599 445.542C215.427 445.542 217.99 440.324 215.21 440.324C209.435 440.324 207.376 435.726 207.376 429.889C207.376 423.91 214.522 416.844 223.044 416.844C232.507 416.844 246.544 420.067 246.544 440.323C246.544 449.68 244.286 479.646 204.468 479.646C181.03 479.646 157.765 461.404 157.765 429.888C157.765 415.655 168.451 379.666 216.466 379.666C233.015 379.666 244.743 383.162 256.923 388.714C255.388 381.96 261.152 376.92 258.077 370.61C255.786 365.906 250.97 364.935 247.751 365.503C248.618 362.136 253.636 359.483 259.036 363.458C259.86 360.139 256.534 355.146 250.265 356.695C250.906 355.012 253.38 353.441 256.277 353.441C280.427 353.441 266.173 390.818 297.55 402.459L263.821 309.566C242.641 309.15 200.393 305.057 190.991 302.051C187.128 324.379 166.341 339.087 144.544 349.011C138.729 359.707 137.113 388.253 139.321 395.971C142.827 397.487 147.271 404.634 147.154 409.016C140.98 413.509 126.525 412.9 123.654 409.016C123.444 403.629 125.813 399.031 128.876 395.971C126.928 389.575 125.59 352.312 134.099 338.575C152.574 331.869 146.853 302.841 146.853 294.569C146.853 286.297 140.544 278.331 140.544 265.527C140.544 230.817 172.66 214.538 199.533 219.491C199.533 201.258 204.765 188.559 204.765 174.437C204.765 162.991 201.177 144.151 200.468 139.716C193.429 137.298 177.38 134.834 176.472 123.719C175.638 113.505 174.898 92.763 176.472 79.728C176.472 76.451 172.474 74.501 172.474 71.73C172.474 68.707 173.173 66.176 174.513 64.204L167.626 45.286C166.872 43.211 167.94 40.916 170.017 40.16C172.093 39.405 174.388 40.475 175.144 42.551L181.49 59.984C182.414 59.826 183.4 59.733 184.47 59.733C187.749 59.733 192.47 67.639 192.47 71.731C192.47 75.695 189.947 78.089 188.616 79.567L315.96 429.72C315.96 429.72 317.644 429.108 319.718 428.352C321.794 427.596 322.864 425.301 322.109 423.226L316.332 407.354C322.275 406.967 327.961 406.215 331.922 405.143C325.475 390.081 315.443 365.246 314.391 358.761C310.317 356.377 308.073 347.199 307.991 339.965C304.712 337.283 289.979 318.019 288.323 307.268C286.055 308.033 282.268 308.584 279.116 308.964L208.823 115.849C211.053 115.934 214.305 116.055 216.489 116.211C213.934 111.268 212.468 105.672 212.468 99.724C212.468 79.846 228.583 63.732 248.462 63.732C268.343 63.732 284.458 79.846 284.458 99.724C284.458 115.836 273.868 129.471 259.27 134.06C262.28 138.977 265.315 145.036 267.434 152.124C254.122 162.921 249.157 185.835 249.157 199.084C249.157 205.343 256.991 207.215 256.991 200.303C256.991 162.925 283.335 127.254 327.491 127.254C365.518 127.254 371.882 150.201 371.882 166.387C371.882 178.225 358.825 191.158 358.825 200.303C358.825 203.384 353.919 221.174 345.77 221.174C337.62 221.174 332.713 216.333 332.713 213.347C332.713 208.882 335.324 202.602 335.324 197.694C335.324 192.785 333.467 176.823 330.101 176.823C323.638 176.823 319.656 187.748 319.656 197.694C319.656 210.465 330.101 223.857 330.101 236.968C330.101 269.922 319.148 270.992 319.148 291.614C319.148 301.434 321.058 325.049 321.044 334.747C324.023 338.063 327.374 348.767 326.267 355.618C326.996 363.811 333.818 387.792 338.994 402.507C352.185 398.716 363.228 389.552 363.228 381.641C363.228 377.265 361.699 376.671 361.699 369.785C361.699 366.729 363.664 363.802 370.318 363.802C376.974 363.802 380.822 364.588 383.244 369.088C380.131 369.832 377.328 371.024 375.422 372.508L381.572 377.374L373.213 379.512C374.027 387.644 371.602 390.324 371.602 398.824C379.875 398.824 386.813 397.853 394.905 388.213L385.135 376.571L399.43 379.902C400.231 374.641 396.485 370.592 391.832 366.839C404.596 366.839 413.127 374.321 413.777 380.23C415.156 392.754 411.277 399.547 402.43 405.068ZM191.418 374.886C187.926 375.17 182.859 377.398 181.168 378.934C177.148 374.422 175.326 355.573 175.326 349.014C179.336 343.426 186.535 339.98 186.535 327.195C190.086 323.868 194.953 316.691 196.951 311.368C200.281 312.255 212.222 314.475 222.39 315.099C222.39 336.395 194.755 347.018 187.872 351.623C187.873 358.752 188.642 367.795 191.418 374.886Z" fill="white"></path> <path d="M266.086 395.083C263.19 395.083 261.006 397.343 260.365 399.025C266.635 397.476 269.961 402.468 269.136 405.787C263.249 400.966 258.4 404.962 258.13 407.601C260.484 407.039 264.718 406.3 267.224 411.728C269.927 417.587 264.732 422.564 268.015 428.465C274.097 432.574 290.781 434.792 294.55 428.511C279.863 425.26 288.51 395.083 266.086 395.083Z" fill="white"></path> <path d="M268.693 100.312C268.693 110.578 259.379 119.893 249.156 120.823C250.039 121.705 252.58 124.434 255.58 128.546C268.545 125.352 278.174 113.68 278.174 99.729C278.174 83.32 264.871 70.019 248.461 70.019C232.053 70.019 218.748 83.321 218.748 99.729C218.748 106.201 220.842 112.171 224.353 117.05C226.396 117.366 228.181 117.744 229.488 118.215C230.738 116.766 232.146 112.975 232.465 111.727C233.256 108.616 228.285 108.023 228.285 99.729C228.285 87.114 236.281 79.014 248.822 79.014C264.215 79.013 268.693 90.047 268.693 100.312Z" fill="white"></path> </svg> 