<?xml version="1.0" encoding="UTF-8"?> <svg xmlns="http://www.w3.org/2000/svg" xmlns:xlink="http://www.w3.org/1999/xlink" width="512" height="512" x="0" y="0" viewBox="0 0 682.667 682.667" style="enable-background:new 0 0 512 512" xml:space="preserve"> <g> <defs> <clipPath id="a" clipPathUnits="userSpaceOnUse"> <path d="M0 512h512V0H0Z" fill="#feaf39" opacity="1" data-original="#000000"></path> </clipPath> </defs> <g clip-path="url(#a)" transform="matrix(1.33333 0 0 -1.33333 0 682.667)"> <path d="m0 0-117.34-28.43a18.18 18.18 0 0 0-4.41-.55c-9.62 0-17.93 7.81-17.93 17.97 0 6.78 3.82 12.98 9.87 16.04L20.37 80.8a29.956 29.956 0 0 0 24.93.96l126.84-52.17c3.25-1.34 6.61-2.38 10.02-3.12.19-.04.37-.08.56-.11a59.87 59.87 0 0 1 16.15-1.15l38.45 6.58" style="stroke-width:15;stroke-linecap:round;stroke-linejoin:round;stroke-miterlimit:10;stroke-dasharray:none;stroke-opacity:1" transform="translate(267.18 420.48)" fill="none" stroke="#feaf39" stroke-width="15" stroke-linecap="round" stroke-linejoin="round" stroke-miterlimit="10" stroke-dasharray="none" stroke-opacity="" data-original="#000000" opacity="1"></path> <path d="m0 0 29.387-19.995a96.75 96.75 0 0 1 72.67-15.02l49.7 9.56" style="stroke-width:15;stroke-linecap:round;stroke-linejoin:round;stroke-miterlimit:10;stroke-dasharray:none;stroke-opacity:1" transform="translate(352.743 357.565)" fill="none" stroke="#feaf39" stroke-width="15" stroke-linecap="round" stroke-linejoin="round" stroke-miterlimit="10" stroke-dasharray="none" stroke-opacity="" data-original="#000000" opacity="1"></path> <path d="M0 0c-10.71 3.21-21.42 6.42-32.14 9.63l-11.36 3.4-35.09 10.51c-8.25 3.69-17.79 1.44-23.03-5.16-.22-.27-.43-.55-.62-.84-2.84-4.04-3.44-8.92-2.19-13.33a16.58 16.58 0 0 1 7.38-9.72l56.559-38.482" style="stroke-width:15;stroke-linecap:round;stroke-linejoin:round;stroke-miterlimit:10;stroke-dasharray:none;stroke-opacity:1" transform="translate(371.61 416.27)" fill="none" stroke="#feaf39" stroke-width="15" stroke-linecap="round" stroke-linejoin="round" stroke-miterlimit="10" stroke-dasharray="none" stroke-opacity="" data-original="#000000" opacity="1"></path> <path d="m0 0 38.45 6.579A59.87 59.87 0 0 0 54.6 5.43c.19-.031.37-.071.56-.111 3.41-.74 6.77-1.78 10.02-3.12l126.84-52.17a29.964 29.964 0 0 1 24.93.96L367.13 26.76A17.978 17.978 0 0 1 377 42.8c0 10.16-8.31 17.97-17.93 17.97-1.45 0-2.93-.18-4.41-.55L237.32 31.789" style="stroke-width:15;stroke-linecap:round;stroke-linejoin:round;stroke-miterlimit:10;stroke-dasharray:none;stroke-opacity:1" transform="translate(7.5 59.73)" fill="none" stroke="#feaf39" stroke-width="15" stroke-linecap="round" stroke-linejoin="round" stroke-miterlimit="10" stroke-dasharray="none" stroke-opacity="" data-original="#000000" opacity="1"></path> <path d="M0 0c10.71-3.211 21.42-6.421 32.14-9.631L43.5-13.03l35.09-10.51c8.25-3.69 17.79-1.44 23.03 5.159.22.271.43.551.62.841 2.84 4.04 3.44 8.92 2.19 13.329a16.585 16.585 0 0 1-7.38 9.721L-10.52 78.699A96.75 96.75 0 0 1-83.19 93.72l-49.7-9.561" style="stroke-width:15;stroke-linecap:round;stroke-linejoin:round;stroke-miterlimit:10;stroke-dasharray:none;stroke-opacity:1" transform="translate(140.39 95.73)" fill="none" stroke="#feaf39" stroke-width="15" stroke-linecap="round" stroke-linejoin="round" stroke-miterlimit="10" stroke-dasharray="none" stroke-opacity="" data-original="#000000" opacity="1"></path> <path d="M0 0c-16.333 18.633-26.233 43.045-26.233 69.77 0 58.482 47.409 105.891 105.892 105.891 58.482 0 105.891-47.409 105.891-105.891 0-58.483-47.409-105.892-105.891-105.892-20.938 0-40.456 6.077-56.888 16.562" style="stroke-width:15;stroke-linecap:round;stroke-linejoin:round;stroke-miterlimit:10;stroke-dasharray:none;stroke-opacity:1" transform="translate(176.341 186.23)" fill="none" stroke="#feaf39" stroke-width="15" stroke-linecap="round" stroke-linejoin="round" stroke-miterlimit="10" stroke-dasharray="none" stroke-opacity="" data-original="#000000" opacity="1"></path> <path d="M0 0c5.99.048 9.984-5.447 7.978-10.627C2.646-24.394-3.256-37.987-9.011-51.583c-.349-.823-.099-1.166.582-1.56C2.348-59.364 13.1-65.626 23.886-71.829c5.314-3.055 6.16-9.274 1.726-13.48-19.537-18.533-39.104-37.033-58.664-55.541-3.281-3.105-6.512-3.809-9.875-2.18-3.664 1.774-5.462 5.943-3.967 9.807 2.041 5.274 4.277 10.473 6.449 15.696a4889.89 4889.89 0 0 0 10.558 25.255c.363.857.058 1.163-.602 1.543-10.91 6.274-21.928 12.422-32.702 18.926-5.016 3.028-5.608 9.202-1.332 13.253C-44.975-40.028-25.369-21.565-5.859-3.002-4.06-1.291-2.085-.068 0 0Z" style="stroke-width:15;stroke-linecap:round;stroke-linejoin:round;stroke-miterlimit:10;stroke-dasharray:none;stroke-opacity:1" transform="translate(275.456 327.94)" fill="none" stroke="#feaf39" stroke-width="15" stroke-linecap="round" stroke-linejoin="round" stroke-miterlimit="10" stroke-dasharray="none" stroke-opacity="" data-original="#000000" opacity="1"></path> </g> </g> </svg> 