<?xml version="1.0" encoding="UTF-8"?> <svg xmlns="http://www.w3.org/2000/svg" width="512" height="452" viewBox="0 0 512 452" fill="none"> <path d="M453.874 451.778H58.1256C26.0774 451.778 0 425.701 0 393.653V58.1256C0 26.0774 26.0774 0 58.1256 0H453.874C485.923 0 512 26.0774 512 58.1256V393.653C512 425.701 485.923 451.778 453.874 451.778ZM58.1256 17.314C35.6236 17.314 17.314 35.6236 17.314 58.1256V393.653C17.314 416.155 35.6236 434.464 58.1256 434.464H453.874C476.376 434.464 494.686 416.155 494.686 393.653V58.1256C494.686 35.6236 476.376 17.314 453.874 17.314H58.1256Z" fill="#FEAF39"></path> <path d="M433.864 319.609H297.831C295.56 319.571 293.395 318.642 291.803 317.022C290.211 315.403 289.319 313.223 289.319 310.952C289.319 308.681 290.211 306.501 291.803 304.882C293.395 303.262 295.56 302.333 297.831 302.295H433.864C438.643 302.295 442.521 306.173 442.521 310.952C442.521 315.734 438.648 319.609 433.864 319.609ZM433.864 382.198H297.831C295.56 382.159 293.395 381.231 291.803 379.611C290.211 377.992 289.319 375.812 289.319 373.541C289.319 371.27 290.211 369.09 291.803 367.471C293.395 365.851 295.56 364.922 297.831 364.884H433.864C438.643 364.884 442.521 368.763 442.521 373.541C442.521 378.323 438.648 382.198 433.864 382.198ZM433.864 194.43H297.831C295.56 194.392 293.395 193.463 291.803 191.843C290.211 190.224 289.319 188.044 289.319 185.773C289.319 183.502 290.211 181.322 291.803 179.703C293.395 178.083 295.56 177.154 297.831 177.116H433.864C438.643 177.116 442.521 180.995 442.521 185.773C442.521 190.555 438.648 194.43 433.864 194.43ZM433.864 257.019H297.831C295.56 256.98 293.395 256.051 291.803 254.432C290.211 252.813 289.319 250.633 289.319 248.362C289.319 246.091 290.211 243.911 291.803 242.291C293.395 240.672 295.56 239.743 297.831 239.705H433.864C438.643 239.705 442.521 243.584 442.521 248.362C442.521 253.144 438.648 257.019 433.864 257.019ZM503.343 115.917H8.657C3.87463 115.917 0 112.044 0 107.26C0 102.478 3.87463 98.603 8.657 98.603H503.343C508.125 98.603 512 102.478 512 107.26C512 112.044 508.125 115.917 503.343 115.917ZM124.802 85.0622C109.946 85.0622 97.86 72.9795 97.86 58.1254C97.86 43.2712 109.946 31.1885 124.802 31.1885C139.657 31.1885 151.739 43.2712 151.739 58.1254C151.739 72.9795 139.655 85.0622 124.802 85.0622ZM124.802 48.5025C119.493 48.5025 115.174 52.8211 115.174 58.1254C115.174 63.4296 119.493 67.7482 124.802 67.7482C130.107 67.7482 134.425 63.4296 134.425 58.1254C134.425 52.8211 130.105 48.5025 124.802 48.5025ZM62.4257 85.0622C47.5752 85.0622 35.4875 72.9795 35.4875 58.1254C35.4875 43.2712 47.5752 31.1885 62.4257 31.1885C77.2798 31.1885 89.3675 43.2712 89.3675 58.1254C89.3675 72.9795 77.2798 85.0622 62.4257 85.0622ZM62.4257 48.5025C57.1202 48.5025 52.8015 52.8211 52.8015 58.1254C52.8015 63.4296 57.1214 67.7482 62.4257 67.7482C67.7349 67.7482 72.0535 63.4296 72.0535 58.1254C72.0535 52.8211 67.7349 48.5025 62.4257 48.5025ZM187.174 85.0622C172.319 85.0622 160.236 72.9795 160.236 58.1254C160.236 43.2712 172.319 31.1885 187.174 31.1885C202.029 31.1885 214.116 43.2712 214.116 58.1254C214.116 72.9795 202.029 85.0622 187.174 85.0622ZM187.174 48.5025C181.865 48.5025 177.55 52.8211 177.55 58.1254C177.55 63.4296 181.87 67.7482 187.174 67.7482C192.484 67.7482 196.802 63.4296 196.802 58.1254C196.802 52.8211 192.484 48.5025 187.174 48.5025ZM232.502 382.198H75.4396C70.6572 382.198 66.7826 378.323 66.7826 373.541V185.773C66.7826 180.995 70.6572 177.116 75.4396 177.116H232.502C237.285 177.116 241.159 180.995 241.159 185.773V373.541C241.159 378.323 237.285 382.198 232.502 382.198ZM84.0966 364.884H223.845V194.43H84.0966V364.884Z" fill="#FEAF39"></path> </svg> 