<?xml version="1.0" encoding="UTF-8"?> <svg xmlns="http://www.w3.org/2000/svg" width="20" height="15" viewBox="0 0 20 15" fill="none"> <g clip-path="url(#clip0_2081_40)"> <path fill-rule="evenodd" clip-rule="evenodd" d="M0.227081 8.05014C0.155562 7.98518 0.0984327 7.90597 0.0593262 7.81763C0.0202196 7.72928 0 7.63375 0 7.53714C0 7.44053 0.0202196 7.34497 0.0593262 7.25662C0.0984327 7.16828 0.155562 7.0891 0.227081 7.02414L1.28909 5.99713C1.43019 5.8568 1.6211 5.77802 1.8201 5.77802C2.0191 5.77802 2.21001 5.8568 2.3511 5.99713L2.42609 6.07114L6.59708 10.3971C6.66769 10.4672 6.76312 10.5065 6.86258 10.5065C6.96204 10.5065 7.05747 10.4672 7.12808 10.3971L17.2881 0.20813H17.3641C17.4338 0.138435 17.5165 0.0831312 17.6075 0.0454102C17.6985 0.00768907 17.7961 -0.0117188 17.8946 -0.0117188C17.9931 -0.0117188 18.0907 0.00768907 18.1817 0.0454102C18.2727 0.0831312 18.3554 0.138435 18.4251 0.20813L19.4871 1.23413C19.5586 1.29918 19.6158 1.37846 19.6549 1.46689C19.694 1.55532 19.7142 1.65093 19.7142 1.74762C19.7142 1.84431 19.694 1.93995 19.6549 2.02838C19.6158 2.11681 19.5586 2.19609 19.4871 2.26114L7.3551 14.4311C7.21401 14.5715 7.02309 14.6502 6.8241 14.6502C6.6251 14.6502 6.43419 14.5715 6.29309 14.4311L0.379089 8.27313L0.227081 8.05014Z" fill="#B58A84"></path> </g> <defs> <clipPath id="clip0_2081_40"> <rect width="19.719" height="14.656" fill="white"></rect> </clipPath> </defs> </svg> 